<svg width="24" height="21" viewBox="0 0 24 21" fill="none" xmlns="http://www.w3.org/2000/svg">
<path fill-rule="evenodd" clip-rule="evenodd" d="M10.528 1.28312C10.9773 1.03017 11.4842 0.897278 11.9998 0.897278C12.5154 0.897278 13.0223 1.03017 13.4716 1.28312C13.9209 1.53607 14.2974 1.90055 14.5648 2.34139L14.5677 2.34614L23.0376 16.4862L23.0458 16.5C23.3077 16.9536 23.4463 17.4679 23.4478 17.9917C23.4493 18.5156 23.3135 19.0307 23.0541 19.4858C22.7947 19.9408 22.4207 20.3201 21.9692 20.5857C21.5177 20.8514 21.0046 20.9942 20.4808 21L20.4698 21.0001L3.51879 21C2.99498 20.9943 2.48182 20.8514 2.03035 20.5857C1.57887 20.3201 1.20483 19.9408 0.945426 19.4858C0.686022 19.0307 0.550303 18.5156 0.55177 17.9917C0.553236 17.4679 0.691839 16.9536 0.953786 16.5L0.961909 16.4862L9.43191 2.34615L10.2898 2.86001L9.43478 2.34139C9.70218 1.90055 10.0787 1.53607 10.528 1.28312ZM11.146 3.37666L2.68246 17.5058C2.59729 17.6556 2.55224 17.8249 2.55176 17.9973C2.55127 18.172 2.59651 18.3436 2.68298 18.4953C2.76945 18.647 2.89413 18.7735 3.04462 18.862C3.1938 18.9498 3.36317 18.9973 3.53617 19H20.4634C20.6364 18.9973 20.8058 18.9498 20.9549 18.862C21.1054 18.7735 21.2301 18.647 21.3166 18.4953C21.403 18.3436 21.4483 18.172 21.4478 17.9973C21.4473 17.825 21.4023 17.6557 21.3171 17.5059L12.8548 3.37865L12.8536 3.37666C12.7645 3.23061 12.6395 3.10983 12.4904 3.02589C12.3406 2.94157 12.1716 2.89728 11.9998 2.89728C11.8279 2.89728 11.6589 2.94157 11.5092 3.02589C11.3601 3.10983 11.235 3.23061 11.146 3.37666Z" fill="#EB5757"/>
<path fill-rule="evenodd" clip-rule="evenodd" d="M11.9998 7.00002C12.5521 7.00002 12.9998 7.44774 12.9998 8.00002V12C12.9998 12.5523 12.5521 13 11.9998 13C11.4475 13 10.9998 12.5523 10.9998 12V8.00002C10.9998 7.44774 11.4475 7.00002 11.9998 7.00002Z" fill="#EB5757"/>
<path fill-rule="evenodd" clip-rule="evenodd" d="M10.9998 16C10.9998 15.4477 11.4475 15 11.9998 15H12.0098C12.5621 15 13.0098 15.4477 13.0098 16C13.0098 16.5523 12.5621 17 12.0098 17H11.9998C11.4475 17 10.9998 16.5523 10.9998 16Z" fill="#EB5757"/>
</svg>
