<svg width="36" height="36" viewBox="0 0 36 36" fill="none" xmlns="http://www.w3.org/2000/svg">
<g clip-path="url(#clip0_244_5149)">
<path fill-rule="evenodd" clip-rule="evenodd" d="M24.8438 24.2049L24.8698 22.0547H24.8438V24.2049Z" fill="#F1D1C9"/>
<path d="M35.8816 10.57C35.742 7.68803 35.0845 5.1303 32.9771 3.02288C30.8652 0.910954 28.312 0.258013 25.43 0.118418C23.5507 0.0128774 21.6843 0 19.8132 0L18.9078 0.000669056C18.6054 0.00100412 18.3028 0.0013394 18 0.0013394C17.6966 0.0013394 17.3935 0.00100397 17.0907 0.000668834L16.1846 0C14.3117 0 12.446 0.0128716 10.57 0.118418C7.68803 0.258013 5.1303 0.915457 3.02288 3.02288C0.910954 5.13481 0.258013 7.68803 0.118418 10.57C0.0128803 12.4492 0 14.3156 0 16.1867L0.000669055 17.0922C0.00100412 17.3946 0.0013394 17.6971 0.0013394 18C0.0013394 18.3027 0.00100422 18.6053 0.000669197 18.9077L0 19.8135C0 21.6857 0.0128716 23.554 0.118418 25.43C0.258013 28.312 0.915457 30.8697 3.02288 32.9771C5.13481 35.089 7.68803 35.742 10.57 35.8816C12.7524 36.0041 14.9174 36.0017 17.0925 35.9993C17.3948 35.999 17.6972 35.9987 18 35.9987C18.3025 35.9987 18.6046 35.999 18.9065 35.9993H18.9091C19.0124 35.9994 19.1156 35.9999 19.2188 36V27.1559V23.8768V22.0547H14.5313V16.6172H19.2188V12.6094C19.2188 12.4453 19.222 12.284 19.2286 12.1253C19.2786 10.9197 19.5186 9.86795 19.9486 8.97006C20.2492 8.34235 20.6426 7.78983 21.1289 7.3125C22.4023 6.0625 24.1016 5.4375 26.2266 5.4375C28.0234 5.4375 29.4141 5.50781 30.3984 5.64844V10.5L27.3383 10.5262C26.386 10.5525 25.7381 10.7703 25.3945 11.1797C25.2179 11.3901 25.0838 11.6512 24.9921 11.9629C24.8932 12.2991 24.8438 12.6943 24.8438 13.1484V16.6172H30.2109L29.5078 22.0547H26.2999H24.8698L24.8438 24.2049V35.9117C25.0391 35.9026 25.2345 35.8926 25.43 35.8816C28.312 35.742 30.8697 35.0845 32.9771 32.9771C35.0891 30.8652 35.742 28.312 35.8816 25.43C35.9744 23.831 35.9962 22.2395 36 20.6447V19.246L35.9997 19.0196C35.9992 18.6801 35.9987 18.3403 35.9987 18C35.9987 17.6966 35.999 17.3935 35.9993 17.0906C36.0017 14.9127 36.0041 12.7483 35.8816 10.57Z" fill="#F1D1C9"/>
</g>
<defs>
<clipPath id="clip0_244_5149">
<rect width="36" height="36" fill="white"/>
</clipPath>
</defs>
</svg>
