<svg width="20" height="20" viewBox="0 0 20 20" fill="none" xmlns="http://www.w3.org/2000/svg">
<path d="M15.2191 8.75713H15.0996C14.8796 8.75713 14.7012 8.57876 14.7012 8.35872C14.7012 8.13869 14.8796 7.96032 15.0996 7.96032H15.2191C17.4143 7.96032 19.2032 6.17147 19.2032 3.97625C19.2032 3.32055 18.6716 2.789 18.0159 2.789H15.0996C14.8796 2.789 14.7012 2.61063 14.7012 2.39059C14.7012 2.17056 14.8796 1.99219 15.0996 1.99219H18.0159C19.1117 1.99219 20 2.88048 20 3.97625C20 6.60972 17.8566 8.75713 15.2191 8.75713ZM4.78088 8.75713H4.9004C5.12043 8.75713 5.2988 8.57876 5.2988 8.35872C5.2988 8.13869 5.12043 7.96032 4.9004 7.96032H4.78088C2.58566 7.96032 0.796813 6.17147 0.796813 3.97625C0.796813 3.32055 1.32836 2.789 1.98406 2.789H5.01992C5.23995 2.789 5.41833 2.61063 5.41833 2.39059C5.41833 2.17056 5.23995 1.99219 5.01992 1.99219H1.98407C0.888297 1.99219 0 2.88048 0 3.97625C0 6.60972 2.14343 8.75713 4.78088 8.75713Z" fill="#EDA900"/>
<path d="M16.4939 15.6172H3.50586V19.9997H16.4939V15.6172Z" fill="#1F3F77"/>
<path d="M16.4939 15.6172H3.50586V16.4339H16.4939V15.6172Z" fill="#0A2751"/>
<path d="M17.5696 18.8047H2.43018V19.9999H17.5696V18.8047Z" fill="#3179AF"/>
<path d="M14.2111 18.8047H2.43018V19.9999H14.2111V18.8047Z" fill="#68A1D6"/>
<path d="M11.9522 14.4219H8.04781C7.71775 14.4219 7.4502 14.6894 7.4502 15.0195C7.4502 15.3495 7.71775 15.6171 8.0478 15.6171H11.9522C12.2822 15.6171 12.5498 15.3495 12.5498 15.0195C12.5498 14.6894 12.2822 14.4219 11.9522 14.4219Z" fill="#E36414"/>
<path d="M11.0956 14.4219H8.04781C7.71775 14.4219 7.4502 14.6894 7.4502 15.0195C7.4502 15.3495 7.71775 15.6171 8.04781 15.6171H11.0956V14.4219Z" fill="#F8961E"/>
<path d="M4.38257 0V8.39841C4.38257 9.61355 5.1754 10.6813 6.33476 11.0359C7.49412 11.3904 8.28695 12.4622 8.28695 13.6733V14.4223H11.7132V13.6733C11.7132 12.4582 12.5061 11.3904 13.6654 11.0359C14.8248 10.6813 15.6176 9.60956 15.6176 8.39841V0H4.38257Z" fill="#F8D707"/>
<path d="M17.5696 15.418H2.43018V15.8164H17.5696V15.418Z" fill="#3179AF"/>
<path d="M14.223 15.418H2.43018V15.8164H14.223V15.418Z" fill="#68A1D6"/>
<path d="M13.984 17.0117H6.01587V17.4101H13.984V17.0117Z" fill="#F8D707"/>
<path d="M4.38257 0V1.99203H10.032C11.1794 1.99203 12.1117 2.9243 12.1117 4.07171V9.22311C12.1117 9.97211 11.7093 10.6653 11.0559 11.0359C10.4025 11.4064 10.0001 12.0956 10.0001 12.8486V14.4223H11.7132V13.6733C11.7132 12.4582 12.5061 11.3904 13.6654 11.0359C14.8248 10.6813 15.6176 9.60956 15.6176 8.39841V0H4.38257Z" fill="#EDA900"/>
<path d="M15.5777 0H4.42232C4.09227 0 3.82471 0.267559 3.82471 0.59761C3.82471 0.92766 4.09227 1.19522 4.42232 1.19522H15.5777C15.9077 1.19522 16.1753 0.92766 16.1753 0.59761C16.1753 0.267559 15.9077 0 15.5777 0Z" fill="#F8D707"/>
<path d="M6.52589 0H4.90039V1.19522H6.52589V0Z" fill="#FFFA5A"/>
<path d="M10.6891 0H8.06763V1.19522H10.6891V0Z" fill="#FFFA5A"/>
<path d="M7.17145 2.78906C6.30691 2.78906 5.60571 3.49026 5.60571 4.3548V5.64165C5.60571 6.50619 6.30691 7.20739 7.17145 7.20739C8.03599 7.20739 8.73719 6.50619 8.73719 5.64165V4.3548C8.73719 3.49026 8.03599 2.78906 7.17145 2.78906Z" fill="#FFFA5A"/>
<path fill-rule="evenodd" clip-rule="evenodd" d="M0.796813 3.57785C0.796813 3.14218 1.14999 2.789 1.58566 2.789H2.04382C2.26693 2.789 2.44223 2.60972 2.44223 2.39059C2.44223 2.17147 2.26295 1.99219 2.04382 1.99219H0.796813C0.356745 1.99219 0 2.34893 0 2.789V3.57785C0 3.79697 0.179283 3.97625 0.398406 3.97625C0.61753 3.97625 0.796813 3.79697 0.796813 3.57785Z" fill="#F8D707"/>
</svg>
