<svg width="16" height="17" viewBox="0 0 16 17" fill="none" xmlns="http://www.w3.org/2000/svg">
<path d="M9.31579 16.1228C8.80409 16.1228 8.3655 15.9693 8 15.6623C7.6345 15.3553 7.40059 14.9532 7.29825 14.4561C7.13743 14.807 6.88158 15.0921 6.5307 15.3114C6.17982 15.5161 5.79971 15.6184 5.39035 15.6184C4.67398 15.6184 4.09649 15.3845 3.6579 14.9167C3.2193 14.4488 3 13.8348 3 13.0746C3 12.5775 3.17544 12.1535 3.52632 11.8026C3.87719 11.4371 4.34503 11.2105 4.92982 11.1228C4.65205 10.8889 4.42544 10.5965 4.25 10.2456C4.07456 9.88012 3.98684 9.52924 3.98684 9.19298C3.98684 8.53509 4.22076 8.00877 4.6886 7.61404C5.15643 7.20468 5.77778 7 6.55263 7C7.15205 7 7.64181 7.18275 8.02193 7.54825C8.40205 7.89912 8.60673 8.37427 8.63597 8.97369C8.86988 8.52047 9.18421 8.16228 9.57895 7.89912C9.97368 7.62135 10.3757 7.48246 10.7851 7.48246C11.4576 7.48246 11.9912 7.71637 12.386 8.18421C12.7953 8.63743 13 9.23684 13 9.98246C13 10.4942 12.8173 10.9547 12.4518 11.364C12.1009 11.7734 11.633 12.0585 11.0482 12.2193C11.326 12.3947 11.5453 12.6287 11.7061 12.9211C11.867 13.2135 11.9474 13.5058 11.9474 13.7982C11.9474 14.5 11.7061 15.0629 11.2237 15.4868C10.7412 15.9108 10.1053 16.1228 9.31579 16.1228ZM9.25 14.8509C9.67398 14.8509 10.0102 14.7339 10.2588 14.5C10.5219 14.2515 10.6535 13.9225 10.6535 13.5132C10.6535 13.3523 10.5877 13.1769 10.4561 12.9868C10.3246 12.7968 10.1564 12.6287 9.95175 12.4825C9.82018 12.3947 9.77632 12.2266 9.82018 11.9781C9.8348 11.8611 9.87135 11.7661 9.92982 11.693C9.9883 11.6053 10.0541 11.5468 10.1272 11.5175C10.5804 11.386 10.9459 11.1886 11.2237 10.9254C11.5161 10.6623 11.6623 10.3845 11.6623 10.0921C11.6623 9.68275 11.5526 9.3538 11.3333 9.10526C11.114 8.84211 10.8216 8.71053 10.4561 8.71053C10.1345 8.71053 9.8421 8.82749 9.57895 9.0614C9.31579 9.2807 9.12573 9.5731 9.00877 9.9386C8.96491 10.0556 8.89912 10.1506 8.8114 10.2237C8.72368 10.2968 8.62135 10.3333 8.50439 10.3333C8.32895 10.3333 8.18275 10.2968 8.06579 10.2237C7.96345 10.1506 7.91228 10.0556 7.91228 9.9386C7.89766 9.44152 7.76608 9.04678 7.51754 8.75439C7.28363 8.44737 6.97661 8.29386 6.59649 8.29386C6.21637 8.29386 5.90205 8.41082 5.65351 8.64474C5.41959 8.86404 5.30263 9.15643 5.30263 9.52193C5.30263 9.74123 5.36111 9.96784 5.47807 10.2018C5.59503 10.4211 5.74854 10.6038 5.9386 10.75C5.99708 10.7939 6.04825 10.8743 6.09211 10.9912C6.13597 11.0936 6.15789 11.2032 6.15789 11.3202C6.14327 11.4956 6.09211 11.6345 6.00439 11.7368C5.93129 11.8392 5.83626 11.8904 5.7193 11.8904C5.32456 11.8904 5.00292 12 4.75439 12.2193C4.52047 12.424 4.40351 12.6944 4.40351 13.0307C4.40351 13.4254 4.51316 13.7471 4.73246 13.9956C4.95176 14.2295 5.24415 14.3465 5.60965 14.3465C5.88743 14.3465 6.13597 14.2661 6.35526 14.1053C6.58918 13.9298 6.76462 13.7105 6.88158 13.4474C6.99854 13.2281 7.16667 13.1184 7.38596 13.1184C7.53216 13.1184 7.64912 13.155 7.73684 13.2281C7.83918 13.3012 7.89766 13.3889 7.91228 13.4912C7.98538 13.9006 8.13889 14.2295 8.37281 14.4781C8.62135 14.7266 8.91374 14.8509 9.25 14.8509ZM7.7807 12.8772C7.4152 12.8772 7.12281 12.7822 6.90351 12.5921C6.68421 12.3874 6.57456 12.1243 6.57456 11.8026C6.57456 11.4225 6.69152 11.1155 6.92544 10.8816C7.15936 10.633 7.45906 10.5088 7.82456 10.5088C8.20468 10.5088 8.5117 10.6184 8.74561 10.8377C8.97953 11.057 9.09649 11.3494 9.09649 11.7149C9.09649 12.0658 8.97222 12.3509 8.72368 12.5702C8.48977 12.7749 8.17544 12.8772 7.7807 12.8772ZM7.89035 12.2632C8.05117 12.2632 8.18275 12.212 8.28509 12.1097C8.38743 12.0073 8.4386 11.8684 8.4386 11.693C8.4386 11.5322 8.38012 11.4079 8.26316 11.3202C8.16082 11.2178 8.01462 11.1667 7.82456 11.1667C7.64912 11.1667 7.50292 11.2251 7.38596 11.3421C7.28363 11.4444 7.23246 11.5833 7.23246 11.7588C7.23246 11.905 7.29094 12.0292 7.4079 12.1316C7.52485 12.2193 7.68567 12.2632 7.89035 12.2632Z" fill="#202626"/>
</svg>
