<svg width="36" height="36" viewBox="0 0 36 36" fill="none" xmlns="http://www.w3.org/2000/svg">
<g clip-path="url(#clip0_244_5148)">
<path d="M17.9955 11.9974C14.6903 11.9974 11.9929 14.6948 11.9929 18C11.9929 21.3052 14.6903 24.0026 17.9955 24.0026C21.3007 24.0026 23.9981 21.3052 23.9981 18C23.9981 14.6948 21.3007 11.9974 17.9955 11.9974ZM35.9987 18C35.9987 15.5143 36.0212 13.0512 35.8816 10.57C35.742 7.68803 35.0845 5.1303 32.9771 3.02288C30.8652 0.910954 28.312 0.258013 25.43 0.118418C22.9443 -0.0211759 20.4812 0.0013394 18 0.0013394C15.5143 0.0013394 13.0512 -0.0211759 10.57 0.118418C7.68803 0.258013 5.1303 0.915457 3.02288 3.02288C0.910954 5.13481 0.258013 7.68803 0.118418 10.57C-0.0211759 13.0557 0.0013394 15.5188 0.0013394 18C0.0013394 20.4812 -0.0211759 22.9488 0.118418 25.43C0.258013 28.312 0.915457 30.8697 3.02288 32.9771C5.13481 35.089 7.68803 35.742 10.57 35.8816C13.0557 36.0212 15.5188 35.9987 18 35.9987C20.4857 35.9987 22.9488 36.0212 25.43 35.8816C28.312 35.742 30.8697 35.0845 32.9771 32.9771C35.089 30.8652 35.742 28.312 35.8816 25.43C36.0257 22.9488 35.9987 20.4857 35.9987 18V18ZM17.9955 27.2357C12.8845 27.2357 8.75976 23.111 8.75976 18C8.75976 12.889 12.8845 8.76426 17.9955 8.76426C23.1065 8.76426 27.2312 12.889 27.2312 18C27.2312 23.111 23.1065 27.2357 17.9955 27.2357ZM27.6095 10.543C26.4162 10.543 25.4525 9.57931 25.4525 8.386C25.4525 7.1927 26.4162 6.22905 27.6095 6.22905C28.8028 6.22905 29.7665 7.1927 29.7665 8.386C29.7668 8.66936 29.7113 8.95 29.603 9.21186C29.4947 9.47371 29.3358 9.71163 29.1355 9.912C28.9351 10.1124 28.6972 10.2712 28.4353 10.3795C28.1735 10.4878 27.8929 10.5433 27.6095 10.543V10.543Z" fill="#F1D1C9"/>
</g>
<defs>
<clipPath id="clip0_244_5148">
<rect width="36" height="36" fill="white"/>
</clipPath>
</defs>
</svg>
