<svg width="188" height="70" viewBox="0 0 188 70" fill="none" xmlns="http://www.w3.org/2000/svg">
<path d="M11.1811 18.2181C10.4288 18.1841 9.86465 18.4221 9.48852 18.9321C9.1124 19.3061 8.75338 19.7141 8.41145 20.1561C8.06952 20.5642 7.71049 21.0062 7.33437 21.4822C7.26599 21.5502 7.1976 21.6522 7.12921 21.7882C7.09502 21.9242 7.04373 22.0772 6.97535 22.2472C6.59923 23.4713 6.20601 24.6954 5.79569 25.9194C5.38538 27.1095 5.09474 28.3505 4.92377 29.6426C4.65023 31.7167 4.95797 33.5528 5.84698 35.1509C6.08633 35.6609 6.30859 36.1709 6.51374 36.6809C6.75309 37.1569 6.99244 37.65 7.23179 38.16C7.74469 39.4521 8.44564 40.5231 9.33466 41.3731C10.2579 42.2232 11.3178 42.9542 12.5146 43.5662C12.8907 43.7023 13.2326 43.8383 13.5404 43.9743C13.8823 44.1103 14.2071 44.2293 14.5149 44.3313C14.6858 44.3993 14.8226 44.4673 14.9252 44.5353C15.062 44.6033 15.1816 44.6373 15.2842 44.6373C16.1732 44.7053 17.0281 44.7563 17.8487 44.7903C18.7035 44.8243 19.5583 44.8583 20.4131 44.8923C20.9602 44.8923 21.456 44.8073 21.9005 44.6373C22.3792 44.4673 22.8067 44.2803 23.1828 44.0763C23.935 43.7022 24.6873 43.3792 25.4395 43.1072C26.1917 42.8692 26.9098 42.5122 27.5937 42.0362C27.7304 41.9682 27.8843 42.0022 28.0553 42.1382C28.2604 42.2742 28.363 42.4102 28.363 42.5462C28.363 42.7162 28.3801 42.8692 28.4143 43.0052C28.4485 43.1412 28.4485 43.2942 28.4143 43.4642C28.3459 44.0763 28.1578 44.6033 27.8501 45.0453C27.474 45.5213 27.115 45.9804 26.773 46.4224C26.4653 46.8644 26.1063 47.2894 25.6959 47.6974C25.525 47.9015 25.2856 48.1055 24.9779 48.3095C24.7044 48.5475 24.4308 48.7515 24.1573 48.9215C22.9263 49.6355 21.627 50.1286 20.2593 50.4006C18.8916 50.7066 17.4897 50.8936 16.0536 50.9616C15.4381 51.0296 14.8055 50.9956 14.1559 50.8596C13.5404 50.7236 12.9078 50.5366 12.2581 50.2986C11.7453 50.0266 11.2324 49.7715 10.7195 49.5335C10.2408 49.2955 9.77916 49.0745 9.33466 48.8705C8.99273 48.7685 8.70209 48.6155 8.46274 48.4115C7.88146 47.9355 7.31728 47.4594 6.77019 46.9834C6.2573 46.5074 5.71021 45.9804 5.12893 45.4023C4.51346 44.7903 3.94928 44.1103 3.43638 43.3622C2.92349 42.6482 2.47898 41.9002 2.10286 41.1181C1.72674 40.0641 1.29933 39.044 0.820629 38.058C0.649665 37.514 0.495797 36.9869 0.359025 36.4769C0.256447 35.9669 0.170964 35.4229 0.102579 34.8448C0.0341929 33.9268 0 32.9917 0 32.0397C0 31.0537 0.0683858 30.1016 0.205157 29.1836C0.307736 28.3675 0.4787 27.5515 0.71805 26.7355C0.957401 25.9194 1.23094 25.1204 1.53868 24.3383C1.64126 24.1003 1.74384 23.8623 1.84642 23.6243C1.98319 23.3863 2.10286 23.1313 2.20544 22.8593C2.68414 21.7032 3.26542 20.6492 3.94928 19.6971C4.66733 18.7451 5.45376 17.776 6.30859 16.79C6.68471 16.348 7.09502 15.9909 7.53953 15.7189C7.98404 15.4129 8.46274 15.1409 8.97563 14.9029C9.86465 14.4269 10.4117 13.6278 10.6169 12.5058C10.7195 11.8938 10.8391 11.2817 10.9759 10.6697C11.1469 10.0237 11.3007 9.39464 11.4375 8.78261C11.9846 6.67451 12.9591 4.83843 14.361 3.27435C15.0791 2.45832 15.8997 1.82929 16.8229 1.38727C17.7461 0.945245 18.7377 0.639231 19.7977 0.469223C20.0712 0.43522 20.3277 0.43522 20.567 0.469223C20.8064 0.469223 21.0628 0.435221 21.3364 0.367216C22.6357 0.129206 23.7982 0.282214 24.824 0.826238C25.884 1.33626 26.8927 1.99929 27.8501 2.81533C28.3288 3.22335 28.6878 3.73337 28.9272 4.3454C29.1665 4.92343 29.3204 5.55246 29.3888 6.23249C29.4914 7.04853 29.2862 7.76256 28.7733 8.37459C28.6023 8.6126 28.4314 8.83362 28.2604 9.03762C28.1236 9.20763 27.9527 9.37764 27.7475 9.54765C27.5082 9.75166 27.2175 9.88766 26.8756 9.95567C26.5679 10.0237 26.243 10.0407 25.9011 10.0067C25.5934 9.93867 25.2856 9.83666 24.9779 9.70066C24.7044 9.53065 24.4821 9.30964 24.3111 9.03762C24.2769 9.03762 24.2257 8.95262 24.1573 8.78261C23.6444 8.06858 23.4563 7.59256 23.5931 7.35455C23.764 7.08253 24.294 6.91252 25.1831 6.84452C25.354 6.81052 25.4908 6.77652 25.5934 6.74252C25.6959 6.70851 25.7814 6.60651 25.8498 6.4365C25.9182 6.26649 25.9011 6.07949 25.7985 5.87548C25.6959 5.63747 25.5934 5.45046 25.4908 5.31445C25.3882 5.21245 25.3027 5.16144 25.2343 5.16144C25.0976 5.09344 24.9608 5.02544 24.824 4.95743C24.7215 4.85543 24.5847 4.78742 24.4137 4.75342C22.9776 4.41341 21.6099 4.43041 20.3106 4.80443C19.3874 5.14444 18.5325 5.56946 17.7461 6.07948C16.9597 6.58951 16.2929 7.25254 15.7458 8.06858C15.4039 8.64661 15.0449 9.19063 14.6687 9.70066C14.2926 10.1767 14.0191 10.7547 13.8481 11.4347C13.8481 11.5367 13.8823 11.6727 13.9507 11.8428C14.0533 12.0128 14.1559 12.0978 14.2584 12.0978C14.4636 12.1318 14.6516 12.1658 14.8226 12.1998C15.0278 12.1998 15.2158 12.2168 15.3868 12.2508C15.8655 12.3188 16.3271 12.3698 16.7716 12.4038C17.2161 12.4038 17.6435 12.4548 18.0538 12.5568C20.4131 13.1688 22.2254 14.4949 23.4905 16.535C23.8324 16.977 24.0547 17.436 24.1573 17.912C24.2598 18.3881 24.2769 18.8811 24.2086 19.3911C24.1744 19.5611 24.1231 19.7481 24.0547 19.9521C24.0205 20.1561 23.935 20.3432 23.7982 20.5132C23.1144 21.5672 22.2083 22.4343 21.0799 23.1143C19.9857 23.7603 18.618 23.8453 16.9768 23.3693C14.8568 22.7573 13.2155 21.5502 12.053 19.7481C11.882 19.4761 11.7282 19.2211 11.5914 18.9831C11.4546 18.7451 11.3178 18.4901 11.1811 18.2181ZM16.0536 16.025C15.78 16.059 15.5236 16.093 15.2842 16.127C15.0791 16.127 14.8568 16.144 14.6175 16.178C14.4465 16.178 14.2926 16.297 14.1559 16.535C14.0191 16.739 13.9849 16.926 14.0533 17.096C14.1217 17.3 14.19 17.521 14.2584 17.759C14.361 17.963 14.4978 18.1841 14.6687 18.4221C15.1133 19.0341 15.6432 19.5271 16.2587 19.9011C16.9084 20.2411 17.5922 20.5302 18.3103 20.7682C19.1651 21.0062 19.9174 20.8362 20.567 20.2582C20.6696 20.1561 20.7722 20.0541 20.8748 19.9521C20.9773 19.8161 21.0457 19.6631 21.0799 19.4931C21.1483 19.1531 21.1312 18.8131 21.0286 18.4731C20.9602 18.1331 20.7551 17.844 20.4131 17.606C19.7977 17.062 19.1309 16.654 18.4129 16.382C17.6948 16.076 16.9084 15.9569 16.0536 16.025Z" fill="#B8CCD9"/>
<path d="M42.5453 26.3784C42.5453 27.3305 42.3914 28.2485 42.0837 29.1326C41.8101 29.9826 41.4853 30.8156 41.1092 31.6317C40.2544 33.3658 39.2115 34.9468 37.9805 36.3749C36.7838 37.769 35.3648 39.01 33.7235 40.0981C33.1764 40.4721 32.6294 40.7271 32.0823 40.8631C31.5352 40.9991 30.9197 41.0331 30.2359 40.9651C28.6972 40.7951 27.4149 40.2341 26.3892 39.282C25.8079 38.738 25.3976 38.143 25.1582 37.497C24.9531 36.8509 24.936 36.1369 25.1069 35.3549C25.2779 34.6748 25.4659 33.9948 25.6711 33.3148C25.8763 32.6347 26.0985 31.9547 26.3379 31.2747C26.5088 30.7306 26.6969 30.2036 26.902 29.6936C27.1072 29.1836 27.3124 28.6565 27.5175 28.1125C27.5859 27.9425 27.5517 27.8065 27.4149 27.7045C27.3124 27.5685 27.1756 27.5345 27.0046 27.6025C26.6285 27.6705 26.2695 27.7215 25.9275 27.7555C25.6198 27.7555 25.2779 27.6705 24.9018 27.5005C24.2521 27.2285 23.9957 26.9905 24.1324 26.7865C24.2008 26.6504 24.2692 26.5144 24.3376 26.3784C24.406 26.2424 24.5085 26.1404 24.6453 26.0724C25.2266 25.6644 25.8079 25.2564 26.3892 24.8484C27.0046 24.4403 27.603 24.0493 28.1843 23.6753C28.9365 23.1653 29.7059 23.1653 30.4923 23.6753C31.2787 24.2193 31.6036 24.9164 31.4668 25.7664C31.4326 26.1064 31.3642 26.4464 31.2616 26.7865C31.1933 27.1265 31.0907 27.4665 30.9539 27.8065C30.612 28.7246 30.27 29.6426 29.9281 30.5606C29.5862 31.4447 29.2443 32.3287 28.9023 33.2128C28.6972 33.7228 28.5262 34.2158 28.3894 34.6918C28.2527 35.1679 28.2014 35.6779 28.2356 36.2219C28.304 36.6299 28.4749 36.9869 28.7485 37.2929C29.022 37.599 29.3981 37.735 29.8768 37.701C30.5949 37.633 31.2445 37.463 31.8258 37.1909C32.4413 36.8849 32.9542 36.4599 33.3645 35.9159C34.0484 34.9638 34.7151 33.9948 35.3648 33.0088C36.0145 32.0227 36.6641 31.0367 37.3138 30.0506C37.4847 29.8466 37.5873 29.6256 37.6215 29.3876C37.6557 29.1496 37.707 28.8946 37.7754 28.6225C37.9122 27.8065 37.5018 27.4155 36.5444 27.4495C36.4761 27.4495 36.4248 27.4665 36.3906 27.5005C36.3564 27.5005 36.3051 27.5005 36.2367 27.5005C36.0315 27.5005 35.8435 27.4325 35.6725 27.2965C35.5016 27.1265 35.4332 26.9565 35.4674 26.7865C35.5357 25.8344 35.8435 25.1034 36.3906 24.5934C37.0402 23.9813 37.7241 23.5563 38.4421 23.3183C39.1602 23.0803 39.9637 23.1143 40.8527 23.4203C41.9811 23.8623 42.5453 24.6444 42.5453 25.7664V26.3784Z" fill="#B8CCD9"/>
<path d="M60.5146 41.7302C60.241 41.7982 59.9333 41.8492 59.5914 41.8832C59.2494 41.9512 58.8904 42.0192 58.5143 42.0872C57.3175 42.2572 56.3601 41.8662 55.6421 40.9141C55.3686 40.5061 55.0608 40.0981 54.7189 39.6901C54.6505 39.5201 54.4966 39.4351 54.2573 39.4351C54.0179 39.4011 53.8299 39.4351 53.6931 39.5371C53.4538 39.6391 53.2144 39.7581 52.9751 39.8941C52.7699 40.0301 52.5818 40.1661 52.4109 40.3021C51.1115 41.3901 49.6071 41.7472 47.8974 41.3731H47.5897C46.8716 41.3731 46.2391 41.2031 45.692 40.8631C45.1449 40.5231 44.6833 40.0811 44.3072 39.5371C43.7601 38.755 43.3156 37.973 42.9736 37.1909C42.6659 36.3749 42.5462 35.4739 42.6146 34.4878C42.683 34.2158 42.7001 33.9268 42.6659 33.6208C42.6659 33.3148 42.683 33.0257 42.7172 32.7537C42.7172 32.2777 42.8027 31.8867 42.9736 31.5807C43.3498 30.8666 43.7088 30.1696 44.0507 29.4896C44.4268 28.7756 44.82 28.0785 45.2304 27.3985C45.6065 26.7525 46.0852 26.2424 46.6665 25.8684C47.2477 25.4604 47.8632 25.1034 48.5129 24.7974C50.3251 23.9813 52.1373 23.4543 53.9496 23.2163C55.7618 22.9783 57.6424 23.1823 59.5914 23.8283C60.0359 23.9303 60.2923 24.2193 60.3607 24.6954C60.4633 25.1714 60.5146 25.6474 60.5146 26.1234C60.4462 27.2115 60.2752 28.2485 60.0017 29.2346C59.7623 30.2206 59.4375 31.2067 59.0272 32.1927C58.7536 32.7707 58.4972 33.3658 58.2579 33.9778C58.0527 34.5898 57.8475 35.2019 57.6424 35.8139C57.4714 36.2559 57.3859 36.6979 57.3859 37.1399C57.3859 37.582 57.4372 38.041 57.5398 38.517C57.6424 38.925 57.8475 39.18 58.1553 39.282C58.463 39.3841 58.7878 39.299 59.1298 39.027C59.3349 38.857 59.5059 38.687 59.6427 38.517C59.8136 38.347 60.0017 38.177 60.2068 38.007C60.3778 37.905 60.5488 37.82 60.7197 37.752C60.9249 37.65 61.113 37.548 61.2839 37.446C61.7284 37.344 62.1046 37.446 62.4123 37.752C62.72 38.058 62.8055 38.415 62.6687 38.823C62.6345 38.959 62.5833 39.095 62.5149 39.231C62.4465 39.367 62.3781 39.5201 62.3097 39.6901C61.8652 40.5401 61.2668 41.2201 60.5146 41.7302ZM56.155 25.9704C54.7531 26.0384 53.4367 26.3614 52.2057 26.9395C51.6244 27.3135 51.0432 27.7045 50.4619 28.1125C49.8806 28.5205 49.419 29.0476 49.0771 29.6936C48.4616 30.8496 47.9658 32.0397 47.5897 33.2638C47.4187 33.7738 47.3845 34.2668 47.4871 34.7428C47.6239 35.2189 47.9316 35.6099 48.4103 35.9159C48.7864 36.1879 49.1283 36.4089 49.4361 36.5789C50.1541 37.0209 50.9064 37.0039 51.6928 36.5279C52.616 36.0519 53.3854 35.4229 54.0008 34.6408C54.6163 33.8588 55.1463 33.0257 55.5908 32.1417C55.9669 31.4277 56.2576 30.6966 56.4627 29.9486C56.7021 29.1666 56.9585 28.4015 57.2321 27.6535C57.3688 27.3475 57.403 27.0585 57.3346 26.7865C57.3004 26.5484 57.1295 26.3104 56.8218 26.0724C56.7534 26.0044 56.6508 25.9874 56.514 26.0214C56.4114 26.0214 56.2918 26.0044 56.155 25.9704Z" fill="#B8CCD9"/>
<path d="M77.0281 22.9103C78.7378 22.2982 80.3448 21.9752 81.8493 21.9412C83.388 21.9072 84.9267 22.1282 86.4654 22.6043C87.6621 22.9783 88.6879 23.5053 89.5427 24.1853C90.4317 24.8654 91.1327 25.6474 91.6456 26.5314C92.1927 27.3815 92.5517 28.3335 92.7227 29.3876C92.8936 30.4076 92.8765 31.4447 92.6714 32.4987C92.5688 33.1788 92.3295 33.7908 91.9533 34.3348C91.5772 34.8788 91.0472 35.2869 90.3634 35.5589C90.0898 35.6609 89.7992 35.7799 89.4914 35.9159C89.2179 36.0179 88.9444 36.1199 88.6708 36.2219C88.1237 36.3919 87.5424 36.4599 86.927 36.4259C86.3457 36.3579 85.7815 36.2049 85.2344 35.9669C84.6873 35.6949 84.1915 35.3549 83.747 34.9468C83.3025 34.5388 82.9606 34.0628 82.7213 33.5188C82.3109 32.4987 82.328 31.5127 82.7725 30.5606C83.0119 30.1526 83.2854 29.8806 83.5932 29.7446C83.8325 29.6766 84.0719 29.6256 84.3112 29.5916C84.5848 29.5576 84.8583 29.5406 85.1318 29.5406C85.3028 29.5066 85.4738 29.5746 85.6447 29.7446C85.8157 29.8806 85.9012 30.0506 85.9012 30.2546C85.9696 30.5266 85.9867 30.7306 85.9525 30.8666C85.8499 31.6147 86.0038 32.2097 86.4141 32.6517C86.8244 33.0597 87.3031 33.4168 87.8502 33.7228C88.1579 33.8928 88.4657 33.9438 88.7734 33.8758C89.0811 33.8078 89.3718 33.6888 89.6453 33.5188C90.3976 33.0428 90.7737 32.3627 90.7737 31.4787C90.7395 30.2886 90.5001 29.2006 90.0556 28.2145C89.6111 27.2285 88.8589 26.3954 87.7989 25.7154C87.4912 25.5454 87.1663 25.3924 86.8244 25.2564C86.5167 25.1204 86.1747 25.0354 85.7986 25.0014C85.0122 24.9674 84.2428 24.9844 83.4906 25.0524C82.7725 25.1204 82.0374 25.2734 81.2851 25.5114C79.4045 26.1234 77.9684 27.2285 76.9769 28.8266C76.293 29.9146 75.7972 31.0537 75.4895 32.2437C75.2159 33.3998 75.233 34.6068 75.5407 35.8649C75.9511 37.565 76.6007 39.078 77.4897 40.4041C78.4129 41.7302 79.7636 42.7502 81.5416 43.4642C82.5674 43.9063 83.5932 44.1783 84.619 44.2803C85.6789 44.3823 86.756 44.3993 87.8502 44.3313C89.2863 44.2633 90.6369 43.9743 91.902 43.4642C93.1672 42.9542 94.3981 42.3082 95.5949 41.5261C96.2103 41.1181 96.7403 40.6421 97.1848 40.0981C97.6293 39.5541 98.0226 38.976 98.3645 38.364C98.5355 38.024 98.6893 37.701 98.8261 37.395C98.9629 37.0549 99.1167 36.7319 99.2877 36.4259C100.04 34.9298 100.399 33.4338 100.365 31.9377C100.365 30.4416 100.074 28.9626 99.4929 27.5005C99.0825 26.4464 98.5526 25.4604 97.9029 24.5424C97.2874 23.5903 96.5352 22.7403 95.6462 21.9922C94.552 21.1422 93.663 20.0371 92.9791 18.6771C92.8423 18.4051 92.6885 18.1501 92.5175 17.912C92.3807 17.64 92.2269 17.368 92.0559 17.096C91.7824 16.654 91.5601 16.212 91.3891 15.7699C91.2182 15.2939 91.0985 14.7839 91.0301 14.2399C91.0301 14.1039 90.9959 13.8999 90.9275 13.6278C90.5172 12.4718 90.3634 11.3327 90.4659 10.2107C90.6027 9.08863 90.8933 7.94957 91.3379 6.79352C91.714 5.70547 92.2269 4.77043 92.8765 3.98839C93.5262 3.20635 94.2955 2.49232 95.1846 1.84629C95.7658 1.40427 96.3984 1.06425 97.0823 0.826238C97.7661 0.554225 98.4671 0.333214 99.1851 0.163207C99.8348 0.0271999 100.57 -0.0238019 101.391 0.0102013C102.245 0.0442025 103.1 0.21421 103.955 0.520225C104.81 0.792238 105.63 1.20026 106.417 1.74428C107.203 2.28831 107.853 2.98534 108.366 3.83538C109.528 5.73947 109.836 7.77956 109.289 9.95567C108.981 10.8737 108.4 11.5877 107.545 12.0978C107.443 12.1658 107.306 12.2168 107.135 12.2508C106.998 12.2508 106.844 12.2678 106.673 12.3018C106.4 12.3358 106.143 12.2508 105.904 12.0468C105.699 11.8428 105.63 11.6217 105.699 11.3837C105.767 11.0777 105.836 10.7717 105.904 10.4657C105.972 10.1597 106.041 9.87066 106.109 9.59865C106.28 8.91862 106.143 8.22159 105.699 7.50755C105.22 6.72552 104.57 6.07949 103.75 5.56946C102.314 4.61742 100.878 4.51541 99.4416 5.26345C98.5526 5.70547 97.8003 6.26649 97.1848 6.94653C96.6036 7.62656 96.0736 8.35759 95.5949 9.13963C95.2188 9.75166 94.9452 10.4997 94.7742 11.3837C94.6033 12.2338 94.552 13.1008 94.6204 13.9849C94.723 14.8689 94.9452 15.7529 95.2871 16.637C95.6291 17.487 96.1249 18.2181 96.7745 18.8301C96.8429 18.8981 96.9113 18.9831 96.9797 19.0851C97.0481 19.1531 97.1165 19.2211 97.1848 19.2891C98.108 20.0711 98.9116 20.9212 99.5954 21.8392C100.313 22.7573 101.049 23.6753 101.801 24.5934C102.04 24.8654 102.262 25.1544 102.468 25.4604C102.673 25.7324 102.878 26.0214 103.083 26.3274C103.733 27.2115 104.194 28.1635 104.468 29.1836C104.741 30.1696 104.912 31.2067 104.981 32.2947C105.186 34.8448 104.827 37.242 103.904 39.4861C103.733 39.9281 103.545 40.3701 103.34 40.8121C103.169 41.2201 102.946 41.6112 102.673 41.9852C102.092 42.8352 101.493 43.6682 100.878 44.4843C100.296 45.3003 99.6809 46.0994 99.0313 46.8814C98.2106 47.9015 97.1336 48.6495 95.8 49.1255C94.5691 49.5675 93.3381 49.9415 92.1072 50.2476C90.9104 50.5876 89.6795 50.9106 88.4144 51.2166C88.2092 51.2506 88.0041 51.2676 87.7989 51.2676C87.5937 51.2676 87.3886 51.2676 87.1834 51.2676C85.7473 51.0976 84.3796 50.8086 83.0803 50.4006C81.7809 50.0266 80.5329 49.4825 79.3362 48.7685C78.8233 48.4965 78.3275 48.2075 77.8488 47.9014C77.4043 47.5954 76.9427 47.2894 76.464 46.9834C76.1904 46.8474 75.9511 46.6604 75.7459 46.4224C74.5833 44.9943 73.5747 43.4982 72.7198 41.9342C71.8992 40.4041 71.2837 38.755 70.8734 36.9869C70.7025 36.3069 70.5999 35.6099 70.5657 34.8958C70.5657 34.1478 70.6512 33.4168 70.8221 32.7027C71.0273 31.9547 71.2495 31.2237 71.4889 30.5096C71.7282 29.7956 71.9847 29.0816 72.2582 28.3675C72.4976 27.8575 72.8395 27.3475 73.284 26.8375C73.8995 26.1574 74.515 25.4944 75.1304 24.8484C75.7801 24.2023 76.4127 23.5563 77.0281 22.9103Z" fill="#B8CCD9"/>
<path d="M123.638 30.4076C123.707 31.3597 123.604 32.2607 123.331 33.1108C123.057 33.9608 122.767 34.7938 122.459 35.6099C122.39 35.7119 122.322 35.8139 122.254 35.9159C122.185 36.0179 122.117 36.1369 122.049 36.2729C121.33 37.2589 120.493 38.143 119.535 38.925C118.578 39.6731 117.501 40.2341 116.304 40.6081C114.765 41.1181 113.312 41.1351 111.945 40.6591C110.577 40.1831 109.431 39.18 108.508 37.65C108.44 37.514 108.406 37.446 108.406 37.446C107.756 36.3919 107.38 35.3209 107.277 34.2328C107.175 33.1448 107.294 32.0057 107.636 30.8156C107.705 30.6116 107.756 30.4076 107.79 30.2036C107.824 29.9996 107.858 29.8126 107.893 29.6426C108.029 29.2006 108.183 28.7926 108.354 28.4185C108.559 28.0445 108.833 27.7215 109.175 27.4495C109.346 27.2455 109.534 27.0415 109.739 26.8375C109.944 26.5995 110.149 26.3784 110.355 26.1744C110.936 25.5964 111.534 25.0864 112.15 24.6444C112.799 24.2023 113.517 23.8453 114.304 23.5733C115.159 23.3013 115.996 23.1823 116.817 23.2163C117.638 23.2163 118.441 23.4543 119.228 23.9303C119.877 24.3043 120.459 24.7294 120.971 25.2054C121.484 25.6814 122.014 26.1744 122.561 26.6845C123.006 27.1265 123.279 27.7215 123.382 28.4695C123.45 28.7756 123.485 29.0986 123.485 29.4386C123.519 29.7786 123.57 30.1016 123.638 30.4076ZM120.305 32.4987C120.339 32.1927 120.356 31.9717 120.356 31.8357C120.39 31.6997 120.407 31.5467 120.407 31.3767C120.373 30.8326 120.305 30.3056 120.202 29.7956C120.134 29.2516 119.963 28.7245 119.689 28.2145C119.347 27.7385 118.954 27.3645 118.51 27.0925C118.099 26.8205 117.586 26.6675 116.971 26.6335C116.219 26.5994 115.535 26.7185 114.919 26.9905C114.304 27.2285 113.757 27.5515 113.278 27.9595C112.799 28.3675 112.406 28.8436 112.098 29.3876C111.791 29.9316 111.586 30.4756 111.483 31.0197C111.312 31.8697 111.226 32.7197 111.226 33.5698C111.261 34.4198 111.415 35.2359 111.688 36.0179C111.962 36.6979 112.338 37.2589 112.816 37.701C113.295 38.109 113.876 38.415 114.56 38.619C115.278 38.789 116.031 38.602 116.817 38.058C117.262 37.718 117.689 37.395 118.099 37.0889C118.544 36.7489 118.971 36.3749 119.381 35.9669C119.86 35.5249 120.134 34.9468 120.202 34.2328C120.202 33.8928 120.202 33.5698 120.202 33.2638C120.236 32.9577 120.271 32.7027 120.305 32.4987Z" fill="#B8CCD9"/>
<path d="M126.731 35.0998C126.696 34.2158 126.748 33.3658 126.885 32.5497C127.056 31.6997 127.226 30.8496 127.397 29.9996C127.5 29.3536 127.586 28.7245 127.654 28.1125C127.756 27.4665 127.859 26.8035 127.962 26.1234C127.962 26.0554 127.91 25.9874 127.808 25.9194C127.739 25.8174 127.671 25.7664 127.603 25.7664C127.226 25.8004 126.867 25.8344 126.526 25.8684C126.184 25.9024 125.825 25.9364 125.448 25.9704C125.141 26.0384 124.85 26.0384 124.577 25.9704C124.337 25.8684 124.098 25.6814 123.858 25.4094C123.722 25.1374 123.688 24.8824 123.756 24.6444C123.824 24.4063 123.893 24.1683 123.961 23.9303C124.2 23.3863 124.525 23.0293 124.936 22.8593C125.209 22.7233 125.483 22.6043 125.756 22.5023C126.064 22.4002 126.355 22.2642 126.628 22.0942C126.936 21.9242 127.244 21.7712 127.551 21.6352C127.859 21.4652 128.15 21.2782 128.423 21.0742C128.902 20.7002 129.329 20.2922 129.705 19.8501C130.116 19.4081 130.389 18.8641 130.526 18.2181C130.56 17.946 130.646 17.674 130.783 17.402C130.919 17.096 131.022 16.79 131.09 16.484C131.364 15.1919 131.74 13.9509 132.219 12.7608C132.697 11.5367 133.125 10.3127 133.501 9.08863C133.809 8.10258 134.236 7.21854 134.783 6.4365C135.364 5.62046 136.134 4.94043 137.091 4.39641C138.014 3.85238 138.955 3.83538 139.912 4.3454C140.083 4.48141 140.254 4.60042 140.425 4.70242C140.596 4.80443 140.75 4.94043 140.887 5.11044C141.057 5.21244 141.177 5.36545 141.246 5.56946C141.348 5.73947 141.434 5.90948 141.502 6.07948C141.878 7.64356 141.776 9.12263 141.194 10.5167C140.681 11.7408 140.134 12.9648 139.553 14.1889C138.972 15.4129 138.254 16.569 137.399 17.657C136.92 18.2351 136.441 18.8131 135.963 19.3911C135.484 19.9351 134.937 20.4452 134.322 20.9212C134.048 21.1592 133.774 21.3972 133.501 21.6352C133.262 21.8732 133.005 22.1112 132.732 22.3492C132.184 22.7573 131.757 23.2503 131.449 23.8283C131.176 24.3723 130.954 24.9674 130.783 25.6134C130.406 27.0415 130.133 28.4695 129.962 29.8976C129.825 31.3257 129.688 32.7707 129.552 34.2328C129.483 34.5048 129.466 34.8108 129.5 35.1509C129.535 35.4569 129.569 35.7459 129.603 36.0179C129.637 36.6979 129.996 37.1399 130.68 37.344C130.954 37.412 131.244 37.48 131.552 37.548C131.86 37.582 132.167 37.633 132.475 37.701C132.783 37.735 132.988 37.922 133.091 38.262C133.262 38.908 133.159 39.3671 132.783 39.6391C132.202 40.0131 131.62 40.3191 131.039 40.5571C130.458 40.7611 129.825 40.7951 129.141 40.6591C128.286 40.4551 127.654 39.9621 127.244 39.18C126.97 38.5 126.799 37.82 126.731 37.1399C126.696 36.4599 126.696 35.7799 126.731 35.0998ZM137.348 8.6296C136.971 9.10563 136.612 9.56465 136.27 10.0067C135.963 10.4147 135.672 10.8567 135.399 11.3327C135.091 11.9108 134.817 12.5058 134.578 13.1178C134.339 13.6958 134.082 14.2739 133.809 14.8519C133.74 14.9199 133.723 15.0219 133.757 15.1579C133.792 15.2599 133.826 15.3449 133.86 15.4129C133.928 15.5149 134.031 15.5489 134.168 15.5149C134.304 15.4809 134.441 15.3959 134.578 15.2599C135.364 14.4779 135.946 13.6108 136.322 12.6588C136.732 11.6727 137.108 10.6867 137.45 9.70066C137.519 9.53065 137.519 9.34364 137.45 9.13963C137.382 8.93562 137.33 8.74861 137.296 8.5786L137.45 8.68061L137.296 8.5786L137.348 8.6296Z" fill="#B8CCD9"/>
<path d="M142.682 40.9651C141.143 40.9991 139.844 40.6591 138.784 39.9451C137.758 39.197 137.057 38.194 136.681 36.9359C136.373 35.8139 136.527 34.6918 137.142 33.5698C137.313 33.2298 137.672 32.9917 138.219 32.8557C138.322 32.8217 138.442 32.8557 138.579 32.9577C138.715 33.0598 138.801 33.1788 138.835 33.3148C138.903 33.4848 138.92 33.6548 138.886 33.8248C138.886 33.9948 138.852 34.1648 138.784 34.3348C138.613 34.7768 138.63 35.2869 138.835 35.8649C139.177 36.6469 139.724 37.0549 140.476 37.0889C140.716 37.1569 140.938 37.2079 141.143 37.242C141.348 37.242 141.57 37.2589 141.81 37.2929C142.494 37.361 143.109 37.1399 143.656 36.6299C144.237 36.1199 144.545 35.4909 144.579 34.7428C144.579 34.4028 144.46 34.0798 144.22 33.7738C143.913 33.3658 143.571 32.9917 143.195 32.6517C142.853 32.2777 142.425 31.9887 141.912 31.7847C141.434 31.5807 140.989 31.3087 140.579 30.9687C140.168 30.5946 139.809 30.1696 139.502 29.6936C139.091 29.1156 138.869 28.5375 138.835 27.9595C138.801 27.3815 138.869 26.7695 139.04 26.1234C139.143 25.8514 139.279 25.6304 139.45 25.4604C139.621 25.2904 139.809 25.1204 140.015 24.9504C140.528 24.6784 141.04 24.4233 141.553 24.1853C142.1 23.9473 142.647 23.7093 143.195 23.4713C143.742 23.2333 144.374 23.2163 145.092 23.4203C145.776 23.6583 146.357 23.9813 146.836 24.3893C147.315 24.7634 147.691 25.2734 147.964 25.9194C148.101 26.1574 148.204 26.3954 148.272 26.6335C148.375 26.8375 148.46 27.0755 148.529 27.3475C148.597 27.5175 148.597 27.6535 148.529 27.7555C148.323 28.2995 147.947 28.7245 147.4 29.0306C147.298 29.0986 147.144 29.0986 146.939 29.0306C146.768 28.9286 146.682 28.8266 146.682 28.7246C146.648 28.5205 146.648 28.3335 146.682 28.1635C146.716 27.9935 146.716 27.8235 146.682 27.6535C146.545 27.1095 146.289 26.7525 145.913 26.5824C145.639 26.4464 145.332 26.3444 144.99 26.2764C144.682 26.2084 144.357 26.2424 144.015 26.3784C143.468 26.5144 142.921 26.7355 142.374 27.0415C142.135 27.1775 141.895 27.4325 141.656 27.8065C141.553 27.9765 141.502 28.1635 141.502 28.3675C141.502 28.5375 141.536 28.6905 141.605 28.8266C141.878 29.2006 142.169 29.5236 142.477 29.7956C142.818 30.0676 143.195 30.2886 143.605 30.4586C144.049 30.6626 144.477 30.8836 144.887 31.1217C145.297 31.3257 145.725 31.5297 146.169 31.7337C146.443 31.8697 146.631 31.9887 146.734 32.0907C147.075 32.6687 147.383 33.2468 147.657 33.8248C147.93 34.4028 147.964 35.0318 147.759 35.7119C147.623 36.1879 147.469 36.6469 147.298 37.0889C147.161 37.531 146.973 37.956 146.734 38.364C146.426 38.976 146.015 39.4861 145.503 39.8941C145.024 40.2681 144.46 40.5911 143.81 40.8631C143.571 40.9311 143.331 40.9651 143.092 40.9651C142.887 40.9651 142.75 40.9651 142.682 40.9651Z" fill="#B8CCD9"/>
<path d="M162.908 41.2711C162.224 41.3731 161.608 41.2881 161.061 41.0161C160.514 40.7781 160.001 40.4211 159.523 39.9451C159.146 39.5711 158.805 39.197 158.497 38.823C158.223 38.415 158.001 37.956 157.83 37.446C157.762 37.1739 157.659 36.9359 157.522 36.7319C157.42 36.4939 157.283 36.2389 157.112 35.9669C156.975 35.7289 156.77 35.5759 156.497 35.5079C155.984 35.4739 155.471 35.4059 154.958 35.3039C154.479 35.2019 154 35.0828 153.522 34.9468C153.282 34.9468 153.129 35.0318 153.06 35.2019C152.41 36.5619 151.778 37.973 151.162 39.4351L150.855 40.2001C150.718 40.4721 150.427 40.6761 149.983 40.8121C149.538 40.9141 149.179 40.8801 148.906 40.7101C148.837 40.6421 148.786 40.5741 148.752 40.5061C148.752 40.4041 148.718 40.3021 148.649 40.2001C148.581 40.0301 148.564 39.8601 148.598 39.6901C148.666 39.4861 148.718 39.299 148.752 39.129C149.47 37.2929 150.154 35.4569 150.803 33.6208C151.487 31.7847 152.171 29.9316 152.855 28.0615C153.163 27.1435 153.453 26.2254 153.727 25.3074C154 24.3893 154.274 23.4713 154.548 22.5533C154.616 22.3833 154.582 22.2472 154.445 22.1452C154.342 22.0092 154.24 21.9752 154.137 22.0432L152.291 22.6553C152.12 22.6893 151.846 22.7063 151.47 22.7063C151.402 22.6723 151.316 22.6383 151.214 22.6043C151.111 22.5703 151.043 22.5193 151.009 22.4513C150.906 22.3492 150.923 22.1792 151.06 21.9412C151.162 21.8392 151.248 21.7372 151.316 21.6352C151.419 21.5332 151.521 21.4482 151.624 21.3802C152.24 21.0062 152.855 20.6322 153.47 20.2582C154.12 19.8501 154.753 19.4591 155.368 19.0851C155.915 18.7451 156.257 18.3371 156.394 17.861C156.77 16.977 157.129 16.076 157.471 15.1579C157.813 14.2399 158.155 13.3388 158.497 12.4548C158.77 11.7748 159.027 11.0947 159.266 10.4147C159.54 9.73466 159.813 9.05463 160.087 8.37459C160.258 7.83057 160.497 7.33754 160.805 6.89552C161.113 6.4535 161.403 5.99448 161.677 5.51846C162.361 4.46441 163.386 3.93738 164.754 3.93738C165.575 3.86938 166.139 4.2264 166.447 5.00844C167.028 6.09649 167.267 7.18454 167.165 8.27259C167.096 9.36064 166.754 10.4487 166.139 11.5367C165.558 12.6248 164.84 13.6278 163.985 14.5459C163.164 15.4639 162.309 16.348 161.42 17.198C161.249 17.368 161.061 17.521 160.856 17.657C160.685 17.759 160.497 17.878 160.292 18.014C158.719 18.9321 157.608 20.3262 156.958 22.1962C156.856 22.5703 156.736 22.9273 156.599 23.2673C156.462 23.6073 156.428 23.9643 156.497 24.3383C156.497 24.3723 156.514 24.4233 156.548 24.4914C156.616 24.5254 156.667 24.5254 156.702 24.4914C156.873 24.4233 157.044 24.3723 157.215 24.3383C157.386 24.3043 157.556 24.2533 157.727 24.1853C158.48 23.6413 159.266 23.2673 160.087 23.0633C160.942 22.8593 161.814 22.7233 162.703 22.6553C163.797 22.6213 164.822 22.9443 165.78 23.6243C166.908 24.3723 167.541 25.1034 167.678 25.8174C167.849 26.5314 167.729 27.4155 167.319 28.4695C167.045 29.1496 166.703 29.7616 166.293 30.3056C165.882 30.8156 165.421 31.3087 164.908 31.7847C164.224 32.3627 163.54 32.9237 162.856 33.4678C162.207 33.9778 161.472 34.4198 160.651 34.7938C160.514 34.8618 160.377 34.9468 160.241 35.0488C160.138 35.1169 160.053 35.2019 159.984 35.3039C159.847 35.5419 159.762 35.7799 159.728 36.0179V36.3239C159.933 36.9699 160.121 37.48 160.292 37.854C160.497 38.228 160.736 38.5 161.01 38.67C161.318 38.84 161.677 38.925 162.087 38.925C162.532 38.925 163.096 38.874 163.78 38.772C164.156 38.704 164.515 38.619 164.857 38.517C165.199 38.415 165.558 38.33 165.934 38.262C166.583 38.16 166.96 38.33 167.062 38.772C167.131 39.01 167.131 39.248 167.062 39.4861C167.028 39.7241 166.942 39.9111 166.806 40.0471C166.259 40.4211 165.694 40.7441 165.113 41.0161C164.566 41.2541 163.951 41.3391 163.267 41.2711H162.908ZM155.368 30.2036C155.607 30.3396 155.813 30.4756 155.984 30.6116C156.189 30.7136 156.377 30.7986 156.548 30.8666C157.368 31.2407 158.018 31.7507 158.497 32.3967C158.941 32.9407 159.505 32.9577 160.189 32.4477C160.976 31.9377 161.625 31.3257 162.138 30.6116C162.651 29.8636 163.079 29.0476 163.421 28.1635C163.557 27.7555 163.455 27.3135 163.113 26.8375C162.737 26.2934 162.224 25.9534 161.574 25.8174C160.993 25.7154 160.412 25.7154 159.83 25.8174C159.283 25.8854 158.77 26.1574 158.292 26.6335C157.813 27.0415 157.351 27.4665 156.907 27.9085C156.462 28.3505 156.052 28.8436 155.676 29.3876C155.607 29.5236 155.556 29.6596 155.522 29.7956C155.488 29.8976 155.437 30.0336 155.368 30.2036ZM160.446 13.6278H160.497C160.429 13.6958 160.395 13.7808 160.395 13.8829C160.395 14.0869 160.412 14.2399 160.446 14.3419C160.446 14.4439 160.531 14.4779 160.702 14.4439C160.873 14.3759 161.027 14.2739 161.164 14.1379C161.882 13.4578 162.48 12.6928 162.959 11.8428C163.438 10.9587 163.865 10.0407 164.241 9.08863C164.275 9.05462 164.292 8.96962 164.292 8.83361C164.224 8.69761 164.173 8.6296 164.139 8.6296C164.07 8.5616 163.985 8.5106 163.882 8.4766C163.814 8.40859 163.745 8.39159 163.677 8.42559C163.403 8.4936 163.164 8.62961 162.959 8.83361C162.788 9.00362 162.617 9.20763 162.446 9.44564C162.104 10.1257 161.762 10.8227 161.42 11.5367C161.113 12.2168 160.788 12.9138 160.446 13.6278Z" fill="#B8CCD9"/>
<path d="M185.783 41.7302C185.509 41.7982 185.201 41.8492 184.86 41.8832C184.518 41.9512 184.159 42.0192 183.782 42.0872C182.586 42.2572 181.628 41.8662 180.91 40.9141C180.637 40.5061 180.329 40.0981 179.987 39.6901C179.919 39.5201 179.765 39.4351 179.525 39.4351C179.286 39.4011 179.098 39.4351 178.961 39.5371C178.722 39.6391 178.483 39.7581 178.243 39.8941C178.038 40.0301 177.85 40.1661 177.679 40.3021C176.38 41.3901 174.875 41.7472 173.166 41.3731H172.858C172.14 41.3731 171.507 41.2031 170.96 40.8631C170.413 40.5231 169.951 40.0811 169.575 39.5371C169.028 38.755 168.584 37.973 168.242 37.1909C167.934 36.3749 167.814 35.4739 167.883 34.4878C167.951 34.2158 167.968 33.9268 167.934 33.6208C167.934 33.3148 167.951 33.0257 167.985 32.7537C167.985 32.2777 168.071 31.8867 168.242 31.5807C168.618 30.8666 168.977 30.1696 169.319 29.4896C169.695 28.7756 170.088 28.0785 170.499 27.3985C170.875 26.7525 171.353 26.2424 171.935 25.8684C172.516 25.4604 173.131 25.1034 173.781 24.7974C175.593 23.9813 177.405 23.4543 179.218 23.2163C181.03 22.9783 182.911 23.1823 184.86 23.8283C185.304 23.9303 185.56 24.2193 185.629 24.6954C185.731 25.1714 185.783 25.6474 185.783 26.1234C185.714 27.2115 185.543 28.2485 185.27 29.2346C185.03 30.2206 184.706 31.2067 184.295 32.1927C184.022 32.7707 183.765 33.3658 183.526 33.9778C183.321 34.5898 183.116 35.2019 182.911 35.8139C182.74 36.2559 182.654 36.6979 182.654 37.1399C182.654 37.582 182.705 38.041 182.808 38.517C182.911 38.925 183.116 39.18 183.423 39.282C183.731 39.3841 184.056 39.299 184.398 39.027C184.603 38.857 184.774 38.687 184.911 38.517C185.082 38.347 185.27 38.177 185.475 38.007C185.646 37.905 185.817 37.82 185.988 37.752C186.193 37.65 186.381 37.548 186.552 37.446C186.997 37.344 187.373 37.446 187.68 37.752C187.988 38.058 188.074 38.415 187.937 38.823C187.903 38.959 187.851 39.095 187.783 39.231C187.715 39.367 187.646 39.5201 187.578 39.6901C187.133 40.5401 186.535 41.2201 185.783 41.7302ZM181.423 25.9704C180.021 26.0384 178.705 26.3614 177.474 26.9395C176.893 27.3135 176.311 27.7045 175.73 28.1125C175.149 28.5205 174.687 29.0476 174.345 29.6936C173.73 30.8496 173.234 32.0397 172.858 33.2638C172.687 33.7738 172.653 34.2668 172.755 34.7428C172.892 35.2189 173.2 35.6099 173.678 35.9159C174.055 36.1879 174.396 36.4089 174.704 36.5789C175.422 37.0209 176.175 37.0039 176.961 36.5279C177.884 36.0519 178.654 35.4229 179.269 34.6408C179.884 33.8588 180.414 33.0257 180.859 32.1417C181.235 31.4277 181.526 30.6966 181.731 29.9486C181.97 29.1666 182.227 28.4015 182.5 27.6535C182.637 27.3475 182.671 27.0585 182.603 26.7865C182.569 26.5484 182.398 26.3104 182.09 26.0724C182.021 26.0044 181.919 25.9874 181.782 26.0214C181.68 26.0214 181.56 26.0044 181.423 25.9704Z" fill="#B8CCD9"/>
<path d="M0.90012 66.139C0.75612 66.139 0.64012 66.1075 0.55212 66.0444C0.47212 65.9813 0.42412 65.8945 0.40812 65.7841C0.39212 65.6737 0.41612 65.5514 0.48012 65.4174L3.75612 58.1058C3.82812 57.9402 3.92012 57.8219 4.03212 57.7509C4.14412 57.672 4.26812 57.6326 4.40412 57.6326C4.54012 57.6326 4.66012 57.672 4.76412 57.7509C4.87612 57.8219 4.97212 57.9402 5.05212 58.1058L8.32812 65.4174C8.39212 65.5514 8.41612 65.6776 8.40012 65.7959C8.39212 65.9064 8.34812 65.9931 8.26812 66.0562C8.18812 66.1114 8.07612 66.139 7.93212 66.139C7.77212 66.139 7.64412 66.0996 7.54812 66.0207C7.45212 65.934 7.36812 65.8117 7.29612 65.654L6.44412 63.69L6.96012 63.974H1.82412L2.34012 63.69L1.48812 65.654C1.41612 65.8275 1.33612 65.9537 1.24812 66.0326C1.16012 66.1036 1.04412 66.139 0.90012 66.139ZM4.38012 58.9576L2.50812 63.3233L2.22012 63.0748H6.56412L6.28812 63.3233L4.40412 58.9576H4.38012Z" fill="#B8CCD9"/>
<path d="M11.7649 66.1627C11.2929 66.1627 10.8969 66.0759 10.5769 65.9024C10.2649 65.7289 10.0329 65.4726 9.8809 65.1334C9.7289 64.7943 9.6529 64.3683 9.6529 63.8557V60.7559C9.6529 60.5745 9.6969 60.4405 9.7849 60.3537C9.8809 60.259 10.0169 60.2117 10.1929 60.2117C10.3689 60.2117 10.5049 60.259 10.6009 60.3537C10.6969 60.4405 10.7449 60.5745 10.7449 60.7559V63.8557C10.7449 64.3447 10.8449 64.7075 11.0449 64.9441C11.2449 65.1728 11.5609 65.2872 11.9929 65.2872C12.4729 65.2872 12.8609 65.1295 13.1569 64.814C13.4609 64.4985 13.6129 64.0805 13.6129 63.5599V60.7559C13.6129 60.5745 13.6569 60.4405 13.7449 60.3537C13.8409 60.259 13.9769 60.2117 14.1529 60.2117C14.3289 60.2117 14.4649 60.259 14.5609 60.3537C14.6569 60.4405 14.7049 60.5745 14.7049 60.7559V65.583C14.7049 65.9537 14.5289 66.139 14.1769 66.139C14.0009 66.139 13.8649 66.0917 13.7689 65.9971C13.6809 65.9024 13.6369 65.7644 13.6369 65.583V64.5537L13.7929 64.7548C13.6329 65.2123 13.3729 65.5633 13.0129 65.8078C12.6609 66.0444 12.2449 66.1627 11.7649 66.1627Z" fill="#B8CCD9"/>
<path d="M18.8861 66.1627C18.4141 66.1627 18.0181 66.0799 17.6981 65.9143C17.3861 65.7486 17.1501 65.5081 16.9901 65.1926C16.8381 64.8771 16.7621 64.4906 16.7621 64.0331V61.1227H15.9941C15.8501 61.1227 15.7381 61.0872 15.6581 61.0162C15.5781 60.9374 15.5381 60.8348 15.5381 60.7086C15.5381 60.5745 15.5781 60.472 15.6581 60.401C15.7381 60.33 15.8501 60.2945 15.9941 60.2945H16.7621V59.005C16.7621 58.8236 16.8101 58.6895 16.9061 58.6027C17.0021 58.5081 17.1381 58.4607 17.3141 58.4607C17.4901 58.4607 17.6221 58.5081 17.7101 58.6027C17.8061 58.6895 17.8541 58.8236 17.8541 59.005V60.2945H19.3061C19.4581 60.2945 19.5741 60.33 19.6541 60.401C19.7341 60.472 19.7741 60.5745 19.7741 60.7086C19.7741 60.8348 19.7341 60.9374 19.6541 61.0162C19.5741 61.0872 19.4581 61.1227 19.3061 61.1227H17.8541V63.9385C17.8541 64.3723 17.9461 64.6996 18.1301 64.9205C18.3141 65.1413 18.6181 65.2517 19.0421 65.2517C19.1941 65.2517 19.3221 65.2399 19.4261 65.2162C19.5301 65.1847 19.6221 65.1689 19.7021 65.1689C19.7741 65.161 19.8341 65.1847 19.8821 65.2399C19.9381 65.2951 19.9661 65.3976 19.9661 65.5475C19.9661 65.6579 19.9461 65.7605 19.9061 65.8551C19.8741 65.9419 19.8061 66.001 19.7021 66.0326C19.6061 66.0641 19.4781 66.0917 19.3181 66.1154C19.1581 66.1469 19.0141 66.1627 18.8861 66.1627Z" fill="#B8CCD9"/>
<path d="M21.3966 66.139C21.2286 66.139 21.0966 66.0917 21.0006 65.9971C20.9046 65.9024 20.8566 65.7644 20.8566 65.583V58.1768C20.8566 57.9954 20.9046 57.8613 21.0006 57.7745C21.0966 57.6799 21.2286 57.6326 21.3966 57.6326C21.5726 57.6326 21.7086 57.6799 21.8046 57.7745C21.9006 57.8613 21.9486 57.9954 21.9486 58.1768V61.5486H21.7926C21.9606 61.099 22.2326 60.7599 22.6086 60.5312C22.9926 60.3024 23.4286 60.1881 23.9166 60.1881C24.3886 60.1881 24.7766 60.2748 25.0806 60.4483C25.3846 60.614 25.6126 60.8664 25.7646 61.2055C25.9166 61.5447 25.9926 61.9706 25.9926 62.4833V65.583C25.9926 65.7644 25.9446 65.9024 25.8486 65.9971C25.7606 66.0917 25.6286 66.139 25.4526 66.139C25.2766 66.139 25.1406 66.0917 25.0446 65.9971C24.9486 65.9024 24.9006 65.7644 24.9006 65.583V62.5424C24.9006 62.0298 24.8006 61.6551 24.6006 61.4185C24.4006 61.1819 24.0806 61.0636 23.6406 61.0636C23.1286 61.0636 22.7166 61.2213 22.4046 61.5368C22.1006 61.8444 21.9486 62.2624 21.9486 62.7909V65.583C21.9486 65.9537 21.7646 66.139 21.3966 66.139Z" fill="#B8CCD9"/>
<path d="M30.2078 66.1627C29.6318 66.1627 29.1318 66.0405 28.7078 65.7959C28.2838 65.5514 27.9558 65.2044 27.7238 64.7548C27.4918 64.3052 27.3758 63.7768 27.3758 63.1695C27.3758 62.712 27.4398 62.3019 27.5678 61.939C27.7038 61.5683 27.8958 61.2528 28.1438 60.9926C28.3918 60.7323 28.6878 60.5351 29.0318 60.401C29.3838 60.259 29.7758 60.1881 30.2078 60.1881C30.7838 60.1881 31.2838 60.3103 31.7078 60.5548C32.1318 60.7993 32.4598 61.1464 32.6918 61.5959C32.9238 62.0376 33.0398 62.5621 33.0398 63.1695C33.0398 63.6269 32.9718 64.041 32.8358 64.4117C32.7078 64.7824 32.5198 65.0979 32.2718 65.3582C32.0238 65.6185 31.7238 65.8196 31.3718 65.9616C31.0278 66.0957 30.6398 66.1627 30.2078 66.1627ZM30.2078 65.3109C30.5598 65.3109 30.8638 65.2281 31.1198 65.0624C31.3838 64.8968 31.5838 64.6562 31.7198 64.3407C31.8638 64.0252 31.9358 63.6348 31.9358 63.1695C31.9358 62.4754 31.7798 61.9469 31.4678 61.5841C31.1558 61.2213 30.7358 61.0399 30.2078 61.0399C29.8638 61.0399 29.5598 61.1227 29.2958 61.2883C29.0398 61.4461 28.8398 61.6827 28.6958 61.9982C28.5518 62.3137 28.4798 62.7041 28.4798 63.1695C28.4798 63.8636 28.6358 64.3959 28.9478 64.7667C29.2678 65.1295 29.6878 65.3109 30.2078 65.3109Z" fill="#B8CCD9"/>
<path d="M35.0026 66.139C34.8186 66.139 34.6786 66.0917 34.5826 65.9971C34.4866 65.9024 34.4386 65.7644 34.4386 65.583V60.7559C34.4386 60.5745 34.4866 60.4405 34.5826 60.3537C34.6786 60.259 34.8106 60.2117 34.9786 60.2117C35.1466 60.2117 35.2746 60.259 35.3626 60.3537C35.4586 60.4405 35.5066 60.5745 35.5066 60.7559V61.6669H35.3866C35.5146 61.1937 35.7546 60.8348 36.1066 60.5903C36.4586 60.3458 36.9026 60.2078 37.4386 60.1762C37.5666 60.1683 37.6706 60.1999 37.7506 60.2709C37.8306 60.334 37.8746 60.4444 37.8826 60.6021C37.8906 60.752 37.8546 60.8743 37.7746 60.9689C37.6946 61.0557 37.5706 61.1069 37.4026 61.1227L37.1866 61.1345C36.6586 61.1898 36.2506 61.3593 35.9626 61.6433C35.6826 61.9272 35.5426 62.3176 35.5426 62.8145V65.583C35.5426 65.7644 35.4946 65.9024 35.3986 65.9971C35.3106 66.0917 35.1786 66.139 35.0026 66.139Z" fill="#B8CCD9"/>
<path d="M44.4343 66.1627C43.8583 66.1627 43.3583 66.0405 42.9343 65.7959C42.5103 65.5514 42.1823 65.2044 41.9503 64.7548C41.7183 64.3052 41.6023 63.7768 41.6023 63.1695C41.6023 62.712 41.6663 62.3019 41.7943 61.939C41.9303 61.5683 42.1223 61.2528 42.3703 60.9926C42.6183 60.7323 42.9143 60.5351 43.2583 60.401C43.6103 60.259 44.0023 60.1881 44.4343 60.1881C45.0103 60.1881 45.5103 60.3103 45.9343 60.5548C46.3583 60.7993 46.6863 61.1464 46.9183 61.5959C47.1503 62.0376 47.2663 62.5621 47.2663 63.1695C47.2663 63.6269 47.1983 64.041 47.0623 64.4117C46.9343 64.7824 46.7463 65.0979 46.4983 65.3582C46.2503 65.6185 45.9503 65.8196 45.5983 65.9616C45.2543 66.0957 44.8663 66.1627 44.4343 66.1627ZM44.4343 65.3109C44.7863 65.3109 45.0903 65.2281 45.3463 65.0624C45.6103 64.8968 45.8103 64.6562 45.9463 64.3407C46.0903 64.0252 46.1623 63.6348 46.1623 63.1695C46.1623 62.4754 46.0063 61.9469 45.6943 61.5841C45.3823 61.2213 44.9623 61.0399 44.4343 61.0399C44.0903 61.0399 43.7863 61.1227 43.5223 61.2883C43.2663 61.4461 43.0663 61.6827 42.9223 61.9982C42.7783 62.3137 42.7063 62.7041 42.7063 63.1695C42.7063 63.8636 42.8623 64.3959 43.1743 64.7667C43.4943 65.1295 43.9143 65.3109 44.4343 65.3109Z" fill="#B8CCD9"/>
<path d="M49.4946 66.139C49.3186 66.139 49.1826 66.0917 49.0866 65.9971C48.9906 65.9024 48.9426 65.7644 48.9426 65.583V61.1227H48.2226C48.0786 61.1227 47.9666 61.0872 47.8866 61.0162C47.8066 60.9374 47.7666 60.8348 47.7666 60.7086C47.7666 60.5745 47.8066 60.472 47.8866 60.401C47.9666 60.33 48.0786 60.2945 48.2226 60.2945H49.2426L48.9426 60.5785V60.1407C48.9426 59.3757 49.1306 58.7959 49.5066 58.4016C49.8906 57.9993 50.4506 57.7667 51.1866 57.7036L51.5586 57.6799C51.6786 57.6641 51.7746 57.6838 51.8466 57.739C51.9186 57.7864 51.9666 57.8495 51.9906 57.9283C52.0146 58.0072 52.0146 58.09 51.9906 58.1768C51.9746 58.2557 51.9386 58.3267 51.8826 58.3898C51.8266 58.4528 51.7546 58.4883 51.6666 58.4962L51.4026 58.5081C50.9226 58.5475 50.5746 58.6895 50.3586 58.934C50.1426 59.1706 50.0346 59.5255 50.0346 59.9988V60.472L49.8786 60.2945H51.2586C51.4106 60.2945 51.5266 60.33 51.6066 60.401C51.6866 60.472 51.7266 60.5745 51.7266 60.7086C51.7266 60.8348 51.6866 60.9374 51.6066 61.0162C51.5266 61.0872 51.4106 61.1227 51.2586 61.1227H50.0346V65.583C50.0346 65.9537 49.8546 66.139 49.4946 66.139Z" fill="#B8CCD9"/>
<path d="M58.8736 66.1627C58.3456 66.1627 57.8936 66.0326 57.5176 65.7723C57.1416 65.512 56.8896 65.161 56.7616 64.7193L56.8936 64.5419V65.583C56.8936 65.7644 56.8456 65.9024 56.7496 65.9971C56.6616 66.0917 56.5296 66.139 56.3536 66.139C56.1856 66.139 56.0536 66.0917 55.9576 65.9971C55.8616 65.9024 55.8136 65.7644 55.8136 65.583V58.1768C55.8136 57.9954 55.8616 57.8613 55.9576 57.7745C56.0536 57.6799 56.1856 57.6326 56.3536 57.6326C56.5296 57.6326 56.6656 57.6799 56.7616 57.7745C56.8576 57.8613 56.9056 57.9954 56.9056 58.1768V61.5959H56.7736C56.9016 61.17 57.1536 60.8309 57.5296 60.5785C57.9056 60.3182 58.3536 60.1881 58.8736 60.1881C59.3936 60.1881 59.8456 60.3103 60.2296 60.5548C60.6216 60.7914 60.9216 61.1345 61.1296 61.5841C61.3456 62.0258 61.4536 62.5543 61.4536 63.1695C61.4536 63.7768 61.3456 64.3092 61.1296 64.7667C60.9136 65.2162 60.6136 65.5633 60.2296 65.8078C59.8456 66.0444 59.3936 66.1627 58.8736 66.1627ZM58.6216 65.3109C58.9656 65.3109 59.2656 65.2281 59.5216 65.0624C59.7856 64.8968 59.9896 64.6562 60.1336 64.3407C60.2776 64.0252 60.3496 63.6348 60.3496 63.1695C60.3496 62.4754 60.1936 61.9469 59.8816 61.5841C59.5696 61.2213 59.1496 61.0399 58.6216 61.0399C58.2696 61.0399 57.9616 61.1227 57.6976 61.2883C57.4416 61.4461 57.2416 61.6827 57.0976 61.9982C56.9616 62.3137 56.8936 62.7041 56.8936 63.1695C56.8936 63.8636 57.0496 64.3959 57.3616 64.7667C57.6736 65.1295 58.0936 65.3109 58.6216 65.3109Z" fill="#B8CCD9"/>
<path d="M65.3406 66.1627C64.7646 66.1627 64.2646 66.0405 63.8406 65.7959C63.4166 65.5514 63.0886 65.2044 62.8566 64.7548C62.6246 64.3052 62.5086 63.7768 62.5086 63.1695C62.5086 62.712 62.5726 62.3019 62.7006 61.939C62.8366 61.5683 63.0286 61.2528 63.2766 60.9926C63.5246 60.7323 63.8206 60.5351 64.1646 60.401C64.5166 60.259 64.9086 60.1881 65.3406 60.1881C65.9166 60.1881 66.4166 60.3103 66.8406 60.5548C67.2646 60.7993 67.5926 61.1464 67.8246 61.5959C68.0566 62.0376 68.1726 62.5621 68.1726 63.1695C68.1726 63.6269 68.1046 64.041 67.9686 64.4117C67.8406 64.7824 67.6526 65.0979 67.4046 65.3582C67.1566 65.6185 66.8566 65.8196 66.5046 65.9616C66.1606 66.0957 65.7726 66.1627 65.3406 66.1627ZM65.3406 65.3109C65.6926 65.3109 65.9966 65.2281 66.2526 65.0624C66.5166 64.8968 66.7166 64.6562 66.8526 64.3407C66.9966 64.0252 67.0686 63.6348 67.0686 63.1695C67.0686 62.4754 66.9126 61.9469 66.6006 61.5841C66.2886 61.2213 65.8686 61.0399 65.3406 61.0399C64.9966 61.0399 64.6926 61.1227 64.4286 61.2883C64.1726 61.4461 63.9726 61.6827 63.8286 61.9982C63.6846 62.3137 63.6126 62.7041 63.6126 63.1695C63.6126 63.8636 63.7686 64.3959 64.0806 64.7667C64.4006 65.1295 64.8206 65.3109 65.3406 65.3109Z" fill="#B8CCD9"/>
<path d="M72.0554 66.1627C71.4794 66.1627 70.9794 66.0405 70.5554 65.7959C70.1314 65.5514 69.8034 65.2044 69.5714 64.7548C69.3394 64.3052 69.2234 63.7768 69.2234 63.1695C69.2234 62.712 69.2874 62.3019 69.4154 61.939C69.5514 61.5683 69.7434 61.2528 69.9914 60.9926C70.2394 60.7323 70.5354 60.5351 70.8794 60.401C71.2314 60.259 71.6234 60.1881 72.0554 60.1881C72.6314 60.1881 73.1314 60.3103 73.5554 60.5548C73.9794 60.7993 74.3074 61.1464 74.5394 61.5959C74.7714 62.0376 74.8874 62.5621 74.8874 63.1695C74.8874 63.6269 74.8194 64.041 74.6834 64.4117C74.5554 64.7824 74.3674 65.0979 74.1194 65.3582C73.8714 65.6185 73.5714 65.8196 73.2194 65.9616C72.8754 66.0957 72.4874 66.1627 72.0554 66.1627ZM72.0554 65.3109C72.4074 65.3109 72.7114 65.2281 72.9674 65.0624C73.2314 64.8968 73.4314 64.6562 73.5674 64.3407C73.7114 64.0252 73.7834 63.6348 73.7834 63.1695C73.7834 62.4754 73.6274 61.9469 73.3154 61.5841C73.0034 61.2213 72.5834 61.0399 72.0554 61.0399C71.7114 61.0399 71.4074 61.1227 71.1434 61.2883C70.8874 61.4461 70.6874 61.6827 70.5434 61.9982C70.3994 62.3137 70.3274 62.7041 70.3274 63.1695C70.3274 63.8636 70.4834 64.3959 70.7954 64.7667C71.1154 65.1295 71.5354 65.3109 72.0554 65.3109Z" fill="#B8CCD9"/>
<path d="M76.8263 66.139C76.6583 66.139 76.5263 66.0917 76.4303 65.9971C76.3343 65.9024 76.2863 65.7644 76.2863 65.583V58.1768C76.2863 57.9954 76.3343 57.8613 76.4303 57.7745C76.5263 57.6799 76.6583 57.6326 76.8263 57.6326C77.0023 57.6326 77.1383 57.6799 77.2343 57.7745C77.3303 57.8613 77.3783 57.9954 77.3783 58.1768V62.8382H77.4023L79.7543 60.5785C79.8743 60.4602 79.9823 60.3695 80.0783 60.3064C80.1743 60.2433 80.2983 60.2117 80.4503 60.2117C80.6023 60.2117 80.7183 60.2512 80.7983 60.33C80.8783 60.401 80.9183 60.4957 80.9183 60.614C80.9183 60.7244 80.8623 60.8348 80.7503 60.9452L78.2543 63.3351V62.8027L80.9783 65.3937C81.0903 65.5041 81.1423 65.6185 81.1343 65.7368C81.1343 65.8551 81.0903 65.9537 81.0023 66.0326C80.9223 66.1036 80.8143 66.139 80.6783 66.139C80.5183 66.139 80.3863 66.1075 80.2823 66.0444C80.1863 65.9813 80.0743 65.8827 79.9463 65.7486L77.4023 63.3824H77.3783V65.583C77.3783 65.9537 77.1943 66.139 76.8263 66.139Z" fill="#B8CCD9"/>
<path d="M84.2906 66.1627C83.9306 66.1627 83.5666 66.1233 83.1986 66.0444C82.8386 65.9576 82.4986 65.8117 82.1786 65.6067C82.0906 65.5514 82.0266 65.4844 81.9866 65.4055C81.9546 65.3188 81.9426 65.2359 81.9506 65.1571C81.9666 65.0703 82.0026 64.9954 82.0586 64.9323C82.1146 64.8692 82.1826 64.8337 82.2626 64.8258C82.3506 64.81 82.4426 64.8298 82.5386 64.885C82.8506 65.0585 83.1506 65.1807 83.4386 65.2517C83.7346 65.3227 84.0266 65.3582 84.3146 65.3582C84.7546 65.3582 85.0866 65.2793 85.3106 65.1216C85.5346 64.9638 85.6466 64.7548 85.6466 64.4945C85.6466 64.2737 85.5706 64.1041 85.4186 63.9858C85.2746 63.8596 85.0466 63.765 84.7346 63.7019L83.6186 63.4771C83.1226 63.3667 82.7466 63.1852 82.4906 62.9328C82.2426 62.6726 82.1186 62.3413 82.1186 61.939C82.1186 61.5841 82.2146 61.2765 82.4066 61.0162C82.6066 60.7481 82.8826 60.543 83.2346 60.401C83.5866 60.259 83.9906 60.1881 84.4466 60.1881C84.7986 60.1881 85.1306 60.2354 85.4426 60.33C85.7626 60.4168 86.0506 60.5509 86.3066 60.7323C86.4026 60.7875 86.4626 60.8585 86.4866 60.9452C86.5186 61.0241 86.5226 61.1069 86.4986 61.1937C86.4826 61.2726 86.4466 61.3396 86.3906 61.3948C86.3346 61.45 86.2626 61.4855 86.1746 61.5013C86.0866 61.5092 85.9906 61.4855 85.8866 61.4303C85.6546 61.2726 85.4146 61.1621 85.1666 61.099C84.9266 61.0281 84.6866 60.9926 84.4466 60.9926C84.0146 60.9926 83.6866 61.0754 83.4626 61.241C83.2466 61.4067 83.1386 61.6236 83.1386 61.8917C83.1386 62.0968 83.2026 62.2664 83.3306 62.4005C83.4666 62.5345 83.6786 62.6331 83.9666 62.6962L85.0826 62.921C85.6026 63.0314 85.9946 63.2089 86.2586 63.4534C86.5226 63.69 86.6546 64.0134 86.6546 64.4236C86.6546 64.9599 86.4386 65.3858 86.0066 65.7013C85.5826 66.0089 85.0106 66.1627 84.2906 66.1627Z" fill="#B8CCD9"/>
<path d="M92.0922 66.139C91.9162 66.139 91.7803 66.0917 91.6842 65.9971C91.5882 65.9024 91.5402 65.7644 91.5402 65.583V61.1227H90.8202C90.6762 61.1227 90.5642 61.0872 90.4842 61.0162C90.4042 60.9374 90.3643 60.8348 90.3643 60.7086C90.3643 60.5745 90.4042 60.472 90.4842 60.401C90.5642 60.33 90.6762 60.2945 90.8202 60.2945H91.8402L91.5402 60.5785V60.1407C91.5402 59.3757 91.7282 58.7959 92.1042 58.4016C92.4883 57.9993 93.0482 57.7667 93.7842 57.7036L94.1562 57.6799C94.2763 57.6641 94.3722 57.6838 94.4442 57.739C94.5162 57.7864 94.5642 57.8495 94.5882 57.9283C94.6123 58.0072 94.6123 58.09 94.5882 58.1768C94.5723 58.2557 94.5362 58.3267 94.4802 58.3898C94.4242 58.4528 94.3522 58.4883 94.2642 58.4962L94.0002 58.5081C93.5202 58.5475 93.1722 58.6895 92.9562 58.934C92.7402 59.1706 92.6322 59.5255 92.6322 59.9988V60.472L92.4762 60.2945H93.8562C94.0082 60.2945 94.1242 60.33 94.2042 60.401C94.2842 60.472 94.3242 60.5745 94.3242 60.7086C94.3242 60.8348 94.2842 60.9374 94.2042 61.0162C94.1242 61.0872 94.0082 61.1227 93.8562 61.1227H92.6322V65.583C92.6322 65.9537 92.4522 66.139 92.0922 66.139Z" fill="#B8CCD9"/>
<path d="M97.6023 66.1627C97.0263 66.1627 96.5263 66.0405 96.1023 65.7959C95.6783 65.5514 95.3503 65.2044 95.1183 64.7548C94.8863 64.3052 94.7703 63.7768 94.7703 63.1695C94.7703 62.712 94.8343 62.3019 94.9623 61.939C95.0983 61.5683 95.2903 61.2528 95.5383 60.9926C95.7863 60.7323 96.0823 60.5351 96.4263 60.401C96.7783 60.259 97.1703 60.1881 97.6023 60.1881C98.1783 60.1881 98.6783 60.3103 99.1023 60.5548C99.5263 60.7993 99.8543 61.1464 100.086 61.5959C100.318 62.0376 100.434 62.5621 100.434 63.1695C100.434 63.6269 100.366 64.041 100.23 64.4117C100.102 64.7824 99.9143 65.0979 99.6663 65.3582C99.4183 65.6185 99.1183 65.8196 98.7663 65.9616C98.4223 66.0957 98.0343 66.1627 97.6023 66.1627ZM97.6023 65.3109C97.9543 65.3109 98.2583 65.2281 98.5143 65.0624C98.7783 64.8968 98.9783 64.6562 99.1143 64.3407C99.2583 64.0252 99.3303 63.6348 99.3303 63.1695C99.3303 62.4754 99.1743 61.9469 98.8623 61.5841C98.5503 61.2213 98.1303 61.0399 97.6023 61.0399C97.2583 61.0399 96.9543 61.1227 96.6903 61.2883C96.4343 61.4461 96.2343 61.6827 96.0903 61.9982C95.9463 62.3137 95.8743 62.7041 95.8743 63.1695C95.8743 63.8636 96.0303 64.3959 96.3423 64.7667C96.6623 65.1295 97.0823 65.3109 97.6023 65.3109Z" fill="#B8CCD9"/>
<path d="M102.397 66.139C102.213 66.139 102.073 66.0917 101.977 65.9971C101.881 65.9024 101.833 65.7644 101.833 65.583V60.7559C101.833 60.5745 101.881 60.4405 101.977 60.3537C102.073 60.259 102.205 60.2117 102.373 60.2117C102.541 60.2117 102.669 60.259 102.757 60.3537C102.853 60.4405 102.901 60.5745 102.901 60.7559V61.6669H102.781C102.909 61.1937 103.149 60.8348 103.501 60.5903C103.853 60.3458 104.297 60.2078 104.833 60.1762C104.961 60.1683 105.065 60.1999 105.145 60.2709C105.225 60.334 105.269 60.4444 105.277 60.6021C105.285 60.752 105.249 60.8743 105.169 60.9689C105.089 61.0557 104.965 61.1069 104.797 61.1227L104.581 61.1345C104.053 61.1898 103.645 61.3593 103.357 61.6433C103.077 61.9272 102.937 62.3176 102.937 62.8145V65.583C102.937 65.7644 102.889 65.9024 102.793 65.9971C102.705 66.0917 102.573 66.139 102.397 66.139Z" fill="#B8CCD9"/>
<path d="M109.885 66.139C109.717 66.139 109.585 66.0917 109.489 65.9971C109.393 65.9024 109.345 65.7644 109.345 65.583V58.1768C109.345 57.9954 109.393 57.8613 109.489 57.7745C109.585 57.6799 109.717 57.6326 109.885 57.6326C110.061 57.6326 110.197 57.6799 110.293 57.7745C110.389 57.8613 110.437 57.9954 110.437 58.1768V62.8382H110.461L112.813 60.5785C112.933 60.4602 113.041 60.3695 113.137 60.3064C113.233 60.2433 113.357 60.2117 113.509 60.2117C113.661 60.2117 113.777 60.2512 113.857 60.33C113.937 60.401 113.977 60.4957 113.977 60.614C113.977 60.7244 113.921 60.8348 113.809 60.9452L111.313 63.3351V62.8027L114.037 65.3937C114.149 65.5041 114.201 65.6185 114.193 65.7368C114.193 65.8551 114.149 65.9537 114.061 66.0326C113.981 66.1036 113.873 66.139 113.737 66.139C113.577 66.139 113.445 66.1075 113.341 66.0444C113.245 65.9813 113.133 65.8827 113.005 65.7486L110.461 63.3824H110.437V65.583C110.437 65.9537 110.253 66.139 109.885 66.139Z" fill="#B8CCD9"/>
<path d="M115.979 66.1154C115.811 66.1154 115.679 66.0641 115.583 65.9616C115.487 65.859 115.439 65.7171 115.439 65.5357V60.8151C115.439 60.6258 115.487 60.4838 115.583 60.3892C115.679 60.2867 115.811 60.2354 115.979 60.2354C116.155 60.2354 116.291 60.2867 116.387 60.3892C116.483 60.4838 116.531 60.6258 116.531 60.8151V65.5357C116.531 65.7171 116.483 65.859 116.387 65.9616C116.299 66.0641 116.163 66.1154 115.979 66.1154ZM115.979 58.9576C115.763 58.9576 115.591 58.9024 115.463 58.792C115.343 58.6737 115.283 58.5199 115.283 58.3306C115.283 58.1255 115.343 57.9717 115.463 57.8692C115.591 57.7588 115.763 57.7036 115.979 57.7036C116.211 57.7036 116.383 57.7588 116.495 57.8692C116.615 57.9717 116.675 58.1255 116.675 58.3306C116.675 58.5199 116.615 58.6737 116.495 58.792C116.383 58.9024 116.211 58.9576 115.979 58.9576Z" fill="#B8CCD9"/>
<path d="M120.518 66.1627C120.006 66.1627 119.554 66.0444 119.162 65.8078C118.778 65.5633 118.478 65.2162 118.262 64.7667C118.046 64.3092 117.938 63.7768 117.938 63.1695C117.938 62.5543 118.042 62.0258 118.25 61.5841C118.466 61.1345 118.766 60.7914 119.15 60.5548C119.542 60.3103 119.998 60.1881 120.518 60.1881C121.038 60.1881 121.486 60.3182 121.862 60.5785C122.238 60.8309 122.49 61.17 122.618 61.5959H122.486V58.1768C122.486 57.9954 122.53 57.8613 122.618 57.7745C122.714 57.6799 122.85 57.6326 123.026 57.6326C123.202 57.6326 123.338 57.6799 123.434 57.7745C123.53 57.8613 123.578 57.9954 123.578 58.1768V65.583C123.578 65.7644 123.53 65.9024 123.434 65.9971C123.338 66.0917 123.202 66.139 123.026 66.139C122.858 66.139 122.726 66.0917 122.63 65.9971C122.534 65.9024 122.486 65.7644 122.486 65.583V64.5064L122.618 64.7193C122.498 65.161 122.246 65.512 121.862 65.7723C121.486 66.0326 121.038 66.1627 120.518 66.1627ZM120.77 65.3109C121.122 65.3109 121.426 65.2281 121.682 65.0624C121.946 64.8968 122.146 64.6562 122.282 64.3407C122.426 64.0252 122.498 63.6348 122.498 63.1695C122.498 62.4754 122.342 61.9469 122.03 61.5841C121.718 61.2213 121.298 61.0399 120.77 61.0399C120.426 61.0399 120.122 61.1227 119.858 61.2883C119.602 61.4461 119.402 61.6827 119.258 61.9982C119.114 62.3137 119.042 62.7041 119.042 63.1695C119.042 63.8636 119.198 64.3959 119.51 64.7667C119.83 65.1295 120.25 65.3109 120.77 65.3109Z" fill="#B8CCD9"/>
<path d="M127.345 66.1627C126.985 66.1627 126.621 66.1233 126.253 66.0444C125.893 65.9576 125.553 65.8117 125.233 65.6067C125.145 65.5514 125.081 65.4844 125.041 65.4055C125.009 65.3188 124.997 65.2359 125.005 65.1571C125.021 65.0703 125.057 64.9954 125.113 64.9323C125.169 64.8692 125.237 64.8337 125.317 64.8258C125.405 64.81 125.497 64.8298 125.593 64.885C125.905 65.0585 126.205 65.1807 126.493 65.2517C126.789 65.3227 127.081 65.3582 127.369 65.3582C127.809 65.3582 128.141 65.2793 128.365 65.1216C128.589 64.9638 128.701 64.7548 128.701 64.4945C128.701 64.2737 128.625 64.1041 128.473 63.9858C128.329 63.8596 128.101 63.765 127.789 63.7019L126.673 63.4771C126.177 63.3667 125.801 63.1852 125.545 62.9328C125.297 62.6726 125.173 62.3413 125.173 61.939C125.173 61.5841 125.269 61.2765 125.461 61.0162C125.661 60.7481 125.937 60.543 126.289 60.401C126.641 60.259 127.045 60.1881 127.501 60.1881C127.853 60.1881 128.185 60.2354 128.497 60.33C128.817 60.4168 129.105 60.5509 129.361 60.7323C129.457 60.7875 129.517 60.8585 129.541 60.9452C129.573 61.0241 129.577 61.1069 129.553 61.1937C129.537 61.2726 129.501 61.3396 129.445 61.3948C129.389 61.45 129.317 61.4855 129.229 61.5013C129.141 61.5092 129.045 61.4855 128.941 61.4303C128.709 61.2726 128.469 61.1621 128.221 61.099C127.981 61.0281 127.741 60.9926 127.501 60.9926C127.069 60.9926 126.741 61.0754 126.517 61.241C126.301 61.4067 126.193 61.6236 126.193 61.8917C126.193 62.0968 126.257 62.2664 126.385 62.4005C126.521 62.5345 126.733 62.6331 127.021 62.6962L128.137 62.921C128.657 63.0314 129.049 63.2089 129.313 63.4534C129.577 63.69 129.709 64.0134 129.709 64.4236C129.709 64.9599 129.493 65.3858 129.061 65.7013C128.637 66.0089 128.065 66.1627 127.345 66.1627Z" fill="#B8CCD9"/>
<path d="M136.119 66.1627C135.719 66.1627 135.355 66.0838 135.027 65.9261C134.707 65.7683 134.455 65.5554 134.271 65.2872C134.095 65.019 134.007 64.7193 134.007 64.3881C134.007 63.9621 134.115 63.6269 134.331 63.3824C134.547 63.1379 134.911 62.9644 135.423 62.8619C135.935 62.7514 136.623 62.6962 137.487 62.6962H138.051V63.3824H137.511C136.895 63.3824 136.407 63.41 136.047 63.4652C135.695 63.5205 135.447 63.619 135.303 63.761C135.159 63.8951 135.087 64.0844 135.087 64.3289C135.087 64.6365 135.195 64.8889 135.411 65.0861C135.635 65.2833 135.939 65.3819 136.323 65.3819C136.627 65.3819 136.895 65.3109 137.127 65.1689C137.359 65.019 137.543 64.8219 137.679 64.5774C137.815 64.325 137.883 64.0371 137.883 63.7137V62.3531C137.883 61.8878 137.787 61.5526 137.595 61.3475C137.403 61.1345 137.079 61.0281 136.623 61.0281C136.359 61.0281 136.087 61.0636 135.807 61.1345C135.527 61.2055 135.235 61.3159 134.931 61.4658C134.811 61.521 134.707 61.5407 134.619 61.525C134.531 61.5013 134.459 61.454 134.403 61.383C134.355 61.3041 134.327 61.2213 134.319 61.1345C134.319 61.0399 134.339 60.9492 134.379 60.8624C134.427 60.7757 134.507 60.7126 134.619 60.6731C134.971 60.4996 135.319 60.3774 135.663 60.3064C136.015 60.2275 136.343 60.1881 136.647 60.1881C137.167 60.1881 137.595 60.2709 137.931 60.4365C138.267 60.5943 138.519 60.8427 138.687 61.1819C138.855 61.5131 138.939 61.939 138.939 62.4596V65.583C138.939 65.7644 138.895 65.9024 138.807 65.9971C138.719 66.0917 138.591 66.139 138.423 66.139C138.263 66.139 138.135 66.0917 138.039 65.9971C137.951 65.9024 137.907 65.7644 137.907 65.583V64.743H138.015C137.951 65.0348 137.831 65.2872 137.655 65.5002C137.479 65.7131 137.259 65.8788 136.995 65.9971C136.739 66.1075 136.447 66.1627 136.119 66.1627Z" fill="#B8CCD9"/>
<path d="M141.197 66.139C141.029 66.139 140.897 66.0917 140.801 65.9971C140.705 65.9024 140.657 65.7644 140.657 65.583V60.7559C140.657 60.5745 140.705 60.4405 140.801 60.3537C140.897 60.259 141.029 60.2117 141.197 60.2117C141.365 60.2117 141.493 60.259 141.581 60.3537C141.677 60.4405 141.725 60.5745 141.725 60.7559V61.7261L141.593 61.5486C141.761 61.099 142.033 60.7599 142.409 60.5312C142.793 60.3024 143.229 60.1881 143.717 60.1881C144.189 60.1881 144.577 60.2709 144.881 60.4365C145.185 60.6021 145.413 60.8545 145.565 61.1937C145.717 61.5328 145.793 61.9627 145.793 62.4833V65.583C145.793 65.7644 145.745 65.9024 145.649 65.9971C145.561 66.0917 145.429 66.139 145.253 66.139C145.077 66.139 144.941 66.0917 144.845 65.9971C144.749 65.9024 144.701 65.7644 144.701 65.583V62.5424C144.701 62.0298 144.601 61.6551 144.401 61.4185C144.201 61.1819 143.881 61.0636 143.441 61.0636C142.929 61.0636 142.517 61.2213 142.205 61.5368C141.901 61.8444 141.749 62.2624 141.749 62.7909V65.583C141.749 65.9537 141.565 66.139 141.197 66.139Z" fill="#B8CCD9"/>
<path d="M149.757 66.1627C149.245 66.1627 148.793 66.0444 148.401 65.8078C148.017 65.5633 147.717 65.2162 147.501 64.7667C147.285 64.3092 147.177 63.7768 147.177 63.1695C147.177 62.5543 147.281 62.0258 147.489 61.5841C147.705 61.1345 148.005 60.7914 148.389 60.5548C148.781 60.3103 149.237 60.1881 149.757 60.1881C150.277 60.1881 150.725 60.3182 151.101 60.5785C151.477 60.8309 151.729 61.17 151.857 61.5959H151.725V58.1768C151.725 57.9954 151.769 57.8613 151.857 57.7745C151.953 57.6799 152.089 57.6326 152.265 57.6326C152.441 57.6326 152.577 57.6799 152.673 57.7745C152.769 57.8613 152.817 57.9954 152.817 58.1768V65.583C152.817 65.7644 152.769 65.9024 152.673 65.9971C152.577 66.0917 152.441 66.139 152.265 66.139C152.097 66.139 151.965 66.0917 151.869 65.9971C151.773 65.9024 151.725 65.7644 151.725 65.583V64.5064L151.857 64.7193C151.737 65.161 151.485 65.512 151.101 65.7723C150.725 66.0326 150.277 66.1627 149.757 66.1627ZM150.009 65.3109C150.361 65.3109 150.665 65.2281 150.921 65.0624C151.185 64.8968 151.385 64.6562 151.521 64.3407C151.665 64.0252 151.737 63.6348 151.737 63.1695C151.737 62.4754 151.581 61.9469 151.269 61.5841C150.957 61.2213 150.537 61.0399 150.009 61.0399C149.665 61.0399 149.361 61.1227 149.097 61.2883C148.841 61.4461 148.641 61.6827 148.497 61.9982C148.353 62.3137 148.281 62.7041 148.281 63.1695C148.281 63.8636 148.437 64.3959 148.749 64.7667C149.069 65.1295 149.489 65.3109 150.009 65.3109Z" fill="#B8CCD9"/>
<path d="M160.12 66.1627C159.648 66.1627 159.252 66.0799 158.932 65.9143C158.62 65.7486 158.384 65.5081 158.224 65.1926C158.072 64.8771 157.996 64.4906 157.996 64.0331V61.1227H157.228C157.084 61.1227 156.972 61.0872 156.892 61.0162C156.812 60.9374 156.772 60.8348 156.772 60.7086C156.772 60.5745 156.812 60.472 156.892 60.401C156.972 60.33 157.084 60.2945 157.228 60.2945H157.996V59.005C157.996 58.8236 158.044 58.6895 158.14 58.6027C158.236 58.5081 158.372 58.4607 158.548 58.4607C158.724 58.4607 158.856 58.5081 158.944 58.6027C159.04 58.6895 159.088 58.8236 159.088 59.005V60.2945H160.54C160.692 60.2945 160.808 60.33 160.888 60.401C160.968 60.472 161.008 60.5745 161.008 60.7086C161.008 60.8348 160.968 60.9374 160.888 61.0162C160.808 61.0872 160.692 61.1227 160.54 61.1227H159.088V63.9385C159.088 64.3723 159.18 64.6996 159.364 64.9205C159.548 65.1413 159.852 65.2517 160.276 65.2517C160.428 65.2517 160.556 65.2399 160.66 65.2162C160.764 65.1847 160.856 65.1689 160.936 65.1689C161.008 65.161 161.068 65.1847 161.116 65.2399C161.172 65.2951 161.2 65.3976 161.2 65.5475C161.2 65.6579 161.18 65.7605 161.14 65.8551C161.108 65.9419 161.04 66.001 160.936 66.0326C160.84 66.0641 160.712 66.0917 160.552 66.1154C160.392 66.1469 160.248 66.1627 160.12 66.1627Z" fill="#B8CCD9"/>
<path d="M164.639 66.1627C164.007 66.1627 163.463 66.0444 163.007 65.8078C162.559 65.5633 162.211 65.2202 161.963 64.7785C161.715 64.3289 161.591 63.8005 161.591 63.1931C161.591 62.5937 161.711 62.0692 161.951 61.6196C162.199 61.17 162.535 60.819 162.959 60.5667C163.391 60.3143 163.883 60.1881 164.435 60.1881C164.827 60.1881 165.179 60.2551 165.491 60.3892C165.811 60.5154 166.083 60.7007 166.307 60.9452C166.531 61.1898 166.699 61.4895 166.811 61.8444C166.931 62.1914 166.991 62.5858 166.991 63.0275C166.991 63.1537 166.951 63.2523 166.871 63.3233C166.799 63.3864 166.691 63.4179 166.547 63.4179H162.443V62.7317H166.271L166.067 62.8974C166.067 62.4872 166.003 62.1402 165.875 61.8562C165.755 61.5644 165.575 61.3436 165.335 61.1937C165.103 61.0438 164.811 60.9689 164.459 60.9689C164.075 60.9689 163.747 61.0596 163.475 61.241C163.203 61.4145 162.995 61.663 162.851 61.9864C162.707 62.3019 162.635 62.6686 162.635 63.0867V63.1576C162.635 63.8675 162.807 64.4038 163.151 64.7667C163.495 65.1295 163.991 65.3109 164.639 65.3109C164.895 65.3109 165.155 65.2793 165.419 65.2162C165.691 65.1531 165.951 65.0388 166.199 64.8731C166.319 64.8021 166.427 64.7706 166.523 64.7785C166.627 64.7785 166.711 64.81 166.775 64.8731C166.839 64.9283 166.879 64.9993 166.895 65.0861C166.911 65.165 166.899 65.2517 166.859 65.3464C166.819 65.441 166.743 65.5238 166.631 65.5948C166.367 65.7762 166.051 65.9182 165.683 66.0207C165.323 66.1154 164.975 66.1627 164.639 66.1627Z" fill="#B8CCD9"/>
<path d="M171.049 66.1627C170.417 66.1627 169.873 66.0444 169.417 65.8078C168.969 65.5633 168.621 65.2202 168.373 64.7785C168.125 64.3289 168.001 63.8005 168.001 63.1931C168.001 62.5937 168.121 62.0692 168.361 61.6196C168.609 61.17 168.945 60.819 169.369 60.5667C169.801 60.3143 170.293 60.1881 170.845 60.1881C171.237 60.1881 171.589 60.2551 171.901 60.3892C172.221 60.5154 172.493 60.7007 172.717 60.9452C172.941 61.1898 173.109 61.4895 173.221 61.8444C173.341 62.1914 173.401 62.5858 173.401 63.0275C173.401 63.1537 173.361 63.2523 173.281 63.3233C173.209 63.3864 173.101 63.4179 172.957 63.4179H168.853V62.7317H172.681L172.477 62.8974C172.477 62.4872 172.413 62.1402 172.285 61.8562C172.165 61.5644 171.985 61.3436 171.745 61.1937C171.513 61.0438 171.221 60.9689 170.869 60.9689C170.485 60.9689 170.157 61.0596 169.885 61.241C169.613 61.4145 169.405 61.663 169.261 61.9864C169.117 62.3019 169.045 62.6686 169.045 63.0867V63.1576C169.045 63.8675 169.217 64.4038 169.561 64.7667C169.905 65.1295 170.401 65.3109 171.049 65.3109C171.305 65.3109 171.565 65.2793 171.829 65.2162C172.101 65.1531 172.361 65.0388 172.609 64.8731C172.729 64.8021 172.837 64.7706 172.933 64.7785C173.037 64.7785 173.121 64.81 173.185 64.8731C173.249 64.9283 173.289 64.9993 173.305 65.0861C173.321 65.165 173.309 65.2517 173.269 65.3464C173.229 65.441 173.153 65.5238 173.041 65.5948C172.777 65.7762 172.461 65.9182 172.093 66.0207C171.733 66.1154 171.385 66.1627 171.049 66.1627Z" fill="#B8CCD9"/>
<path d="M175.299 66.139C175.131 66.139 174.999 66.0917 174.903 65.9971C174.807 65.9024 174.759 65.7644 174.759 65.583V60.7559C174.759 60.5745 174.807 60.4405 174.903 60.3537C174.999 60.259 175.131 60.2117 175.299 60.2117C175.467 60.2117 175.595 60.259 175.683 60.3537C175.779 60.4405 175.827 60.5745 175.827 60.7559V61.7261L175.695 61.5486C175.863 61.099 176.135 60.7599 176.511 60.5312C176.895 60.3024 177.331 60.1881 177.819 60.1881C178.291 60.1881 178.679 60.2709 178.983 60.4365C179.287 60.6021 179.515 60.8545 179.667 61.1937C179.819 61.5328 179.895 61.9627 179.895 62.4833V65.583C179.895 65.7644 179.847 65.9024 179.751 65.9971C179.663 66.0917 179.531 66.139 179.355 66.139C179.179 66.139 179.043 66.0917 178.947 65.9971C178.851 65.9024 178.803 65.7644 178.803 65.583V62.5424C178.803 62.0298 178.703 61.6551 178.503 61.4185C178.303 61.1819 177.983 61.0636 177.543 61.0636C177.031 61.0636 176.619 61.2213 176.307 61.5368C176.003 61.8444 175.851 62.2624 175.851 62.7909V65.583C175.851 65.9537 175.667 66.139 175.299 66.139Z" fill="#B8CCD9"/>
<path d="M183.642 66.1627C183.282 66.1627 182.918 66.1233 182.55 66.0444C182.19 65.9576 181.85 65.8117 181.53 65.6067C181.442 65.5514 181.378 65.4844 181.338 65.4055C181.306 65.3188 181.294 65.2359 181.302 65.1571C181.318 65.0703 181.354 64.9954 181.41 64.9323C181.466 64.8692 181.534 64.8337 181.614 64.8258C181.702 64.81 181.794 64.8298 181.89 64.885C182.202 65.0585 182.502 65.1807 182.79 65.2517C183.086 65.3227 183.378 65.3582 183.666 65.3582C184.106 65.3582 184.438 65.2793 184.662 65.1216C184.886 64.9638 184.998 64.7548 184.998 64.4945C184.998 64.2737 184.922 64.1041 184.77 63.9858C184.626 63.8596 184.398 63.765 184.086 63.7019L182.97 63.4771C182.474 63.3667 182.098 63.1852 181.842 62.9328C181.594 62.6726 181.47 62.3413 181.47 61.939C181.47 61.5841 181.566 61.2765 181.758 61.0162C181.958 60.7481 182.234 60.543 182.586 60.401C182.938 60.259 183.342 60.1881 183.798 60.1881C184.15 60.1881 184.482 60.2354 184.794 60.33C185.114 60.4168 185.402 60.5509 185.658 60.7323C185.754 60.7875 185.814 60.8585 185.838 60.9452C185.87 61.0241 185.874 61.1069 185.85 61.1937C185.834 61.2726 185.798 61.3396 185.742 61.3948C185.686 61.45 185.614 61.4855 185.526 61.5013C185.438 61.5092 185.342 61.4855 185.238 61.4303C185.006 61.2726 184.766 61.1621 184.518 61.099C184.278 61.0281 184.038 60.9926 183.798 60.9926C183.366 60.9926 183.038 61.0754 182.814 61.241C182.598 61.4067 182.49 61.6236 182.49 61.8917C182.49 62.0968 182.554 62.2664 182.682 62.4005C182.818 62.5345 183.03 62.6331 183.318 62.6962L184.434 62.921C184.954 63.0314 185.346 63.2089 185.61 63.4534C185.874 63.69 186.006 64.0134 186.006 64.4236C186.006 64.9599 185.79 65.3858 185.358 65.7013C184.934 66.0089 184.362 66.1627 183.642 66.1627Z" fill="#B8CCD9"/>
</svg>
