<svg width="24" height="25" viewBox="0 0 24 25" fill="none" xmlns="http://www.w3.org/2000/svg">
<path d="M10.2389 3.96169C10.9939 2.55882 13.0061 2.55882 13.7611 3.96169L15.2537 6.73496C15.5421 7.27084 16.0588 7.64625 16.6576 7.75495L19.7564 8.31749C21.3239 8.60206 21.9457 10.5158 20.8448 11.6674L18.6685 13.9439C18.248 14.3838 18.0506 14.9912 18.1323 15.5943L18.5548 18.7152C18.7686 20.2939 17.1407 21.4767 15.7053 20.7855L12.8677 19.4192C12.3193 19.1552 11.6807 19.1552 11.1323 19.4192L8.29473 20.7855C6.85932 21.4767 5.23141 20.2939 5.44517 18.7152L5.86773 15.5943C5.94938 14.9912 5.75201 14.3838 5.33149 13.9439L3.15518 11.6674C2.05429 10.5158 2.6761 8.60206 4.24363 8.31749L7.34239 7.75495C7.94117 7.64625 8.45787 7.27084 8.74629 6.73496L10.2389 3.96169Z" fill="#F8D707"/>
<path fill-rule="evenodd" clip-rule="evenodd" d="M11.7629 19.2358C12.1368 19.1912 12.5203 19.2525 12.8676 19.4197L15.7052 20.786C17.1406 21.4771 18.7685 20.2944 18.5547 18.7157L18.1322 15.5947C18.0505 14.9917 18.2479 14.3842 18.6684 13.9443L20.8447 11.6678C21.9456 10.5162 21.3238 8.60251 19.7563 8.31795L16.6575 7.7554C16.4207 7.71241 16.1967 7.62769 15.9946 7.50781C16.413 9.43423 16.3537 11.4904 15.7272 13.4961C14.9922 15.8488 13.5759 17.8143 11.7629 19.2358Z" fill="#EDA900"/>
<path d="M6.61641 12.3668C5.24265 11.3023 5.88 9.10574 7.61021 8.94185C8.95788 8.81419 10.01 10.0853 9.63278 11.3854C9.25555 12.6855 7.68645 13.196 6.61641 12.3668Z" fill="#FFFA5A"/>
</svg>
