<svg width="20" height="19" viewBox="0 0 20 19" fill="none" xmlns="http://www.w3.org/2000/svg">
<path fill-rule="evenodd" clip-rule="evenodd" d="M17.7388 15.5945C15.3718 16.5911 12.7557 17.0894 10.1396 17.0894C6.65145 17.0894 3.28787 16.2173 0.298026 14.4733C0.0488722 14.3487 -0.0757048 14.5978 0.0488721 14.7224C2.78957 17.214 6.27772 18.4597 9.89045 18.4597C12.7557 18.4597 15.621 17.5877 17.988 15.9682C18.4863 15.8436 18.1125 15.3453 17.7388 15.5945ZM19.9812 14.3487C18.86 13.8504 17.4896 13.975 16.493 14.7224C16.2439 14.847 16.3685 15.0961 16.493 14.9716C17.2405 14.847 18.7354 14.7224 18.9846 15.0961C19.2337 15.4699 18.7354 16.9648 18.3617 17.5877C18.2371 17.8368 18.4863 17.8368 18.6108 17.7123C19.6075 16.8402 20.1058 15.5945 19.9812 14.3487ZM8.76926 12.7292C10.1396 12.8538 11.51 12.2309 12.382 11.1097C12.7557 11.608 13.1295 12.1063 13.6278 12.6046C13.7523 12.7292 14.0015 12.7292 14.1261 12.6046C14.4998 12.2309 15.3718 11.4834 15.7456 11.1097C15.8701 10.9851 15.8701 10.736 15.7456 10.4868C15.2473 9.98849 14.9981 9.24103 14.8735 8.49357V5.12999C14.8735 3.75964 14.9981 2.38929 13.8769 1.39268C13.0049 0.645215 11.7591 0.271484 10.6379 0.271484C8.64468 0.396061 6.27772 1.14352 5.90399 3.63506C5.90399 3.88422 6.02857 4.00879 6.27772 4.00879L8.39553 4.25795C8.64468 4.25795 8.76926 4.00879 8.76926 3.88422C8.89384 3.01218 9.6413 2.51387 10.5133 2.63845C11.0116 2.63845 11.3854 2.8876 11.7591 3.26133C12.0083 3.75964 12.1328 4.25795 12.0083 4.88083V5.12999C10.6379 5.12999 9.26757 5.37914 7.89722 5.87745C6.4023 6.37576 5.40568 7.7461 5.53026 9.3656V9.86391C5.53026 11.4834 7.02518 12.8538 8.76926 12.7292ZM11.8837 6.74949V7.2478C12.0083 7.99526 11.8837 8.8673 11.51 9.49018C11.2608 10.1131 10.6379 10.4868 10.015 10.4868C9.14299 10.4868 8.64468 9.86391 8.64468 8.8673C8.64468 7.12322 10.2642 6.74949 11.8837 6.74949Z" fill="white"/>
</svg>
